<svg width="91" height="86" viewBox="0 0 91 86" fill="none" xmlns="http://www.w3.org/2000/svg">
<g id="logo 1">
<g id="Group">
<path id="Vector" d="M61.6069 62.9315L61.7889 62.977L61.8344 62.795L61.6524 62.7495L61.6069 62.9315Z" fill="#EF3360"/>
<path id="Vector_2" d="M62.79 64.5239L62.8355 64.6149L62.972 64.5694L62.79 64.5239Z" fill="#EF3360"/>
<path id="Vector_3" d="M61.1974 63.1135L61.3794 63.068C61.5159 63.1135 61.4704 63.341 61.6069 63.341V62.9315H61.4704L61.5159 62.7495L61.5614 62.5675C61.7889 62.522 61.7889 62.6585 61.7889 62.8405C61.9709 63.0225 62.3349 63.068 62.4259 63.341C62.4714 63.7505 61.9709 63.5685 61.9254 63.8415C62.2894 64.3875 63.1084 63.5685 63.4269 63.978L63.3814 64.16L63.5634 64.1145C63.5634 64.524 63.0629 64.3875 62.9264 64.615C63.9274 64.342 64.9284 63.978 65.9294 63.614C68.7049 62.4765 71.2984 60.8385 73.5279 58.791L73.5734 58.609L73.5279 58.427C73.8464 58.063 74.2559 57.79 74.6654 57.517L74.7109 57.6535C74.9839 57.335 75.2569 57.062 75.5299 56.7435C75.7574 56.4705 76.0304 56.1975 76.2579 55.879L76.2124 55.7425L76.0304 55.788V54.7415L76.2124 54.787L76.2579 54.605C76.6219 54.605 76.6219 55.151 76.5309 55.242L76.6219 55.333C77.0769 54.7415 77.4864 54.15 77.8504 53.5585H77.6229V53.422L77.8049 53.4675L77.8504 53.2855C77.8959 53.24 77.9414 53.1945 78.0324 53.1945C78.8059 51.966 79.4429 50.6465 79.9889 49.2815C79.9434 49.236 79.8979 49.236 79.8524 49.236C79.8979 49.145 79.9889 49.0995 79.9889 48.963C80.0344 48.963 80.0799 49.0085 80.0799 49.0085C80.5349 47.871 80.8989 46.688 81.1719 45.505C80.6714 45.232 80.1709 44.9135 79.7159 44.5495C79.6704 44.2765 79.8979 44.322 80.0799 44.2765C79.8524 43.594 79.0334 43.5485 79.0789 42.593L79.3064 42.6385L79.4429 42.4565C79.5794 42.593 79.7159 42.775 79.8069 42.957C80.7169 42.866 81.0809 43.321 81.4449 43.8215C81.6269 42.593 81.7634 41.3645 81.7634 40.136C81.4904 40.045 81.3539 39.772 81.3994 39.499H81.7634C81.7634 36.9965 81.3539 34.494 80.6259 32.0825C80.4894 32.31 79.9434 32.219 80.0344 31.8095C80.1709 31.9005 80.3984 31.9915 80.5804 31.946C80.3529 31.218 80.1254 30.5355 79.8069 29.853C78.5784 26.8955 76.8039 24.1655 74.5744 21.845C74.5744 21.8905 74.5289 21.936 74.5289 21.9815C74.3469 22.027 74.3924 21.845 74.3924 21.7085C72.6179 19.8885 70.5249 18.296 68.2954 17.0675V17.4315C68.1589 17.3405 67.9769 17.295 67.7949 17.295C67.8404 17.0675 67.9769 17.022 68.2499 17.022C67.6584 16.7035 67.0214 16.385 66.4299 16.112C66.3389 16.1575 66.2024 16.203 66.0659 16.2485C66.1114 16.203 66.2024 16.112 66.2934 16.0665C59.8779 13.2455 52.6434 13.2 46.1824 15.839C45.5454 16.112 44.9084 16.385 44.3169 16.7035V16.8855C44.2259 16.8855 44.1804 16.8855 44.1349 16.84C37.4464 20.3435 32.6234 26.577 30.9399 33.948C31.2129 33.9935 31.2584 34.1755 31.2584 33.675C31.5769 33.584 31.4859 33.948 31.7589 33.948C31.5769 34.2665 31.2584 34.4485 30.8944 34.4485V34.221C30.8489 34.494 30.7579 34.8125 30.7124 35.0855C30.8944 35.04 31.0764 35.131 30.9854 35.3585C30.8489 35.1765 30.7579 35.2675 30.6214 35.3585C30.4849 36.041 30.4394 36.678 30.3484 37.3605C30.4849 37.406 30.6214 37.4515 30.7124 37.4515C30.8034 37.8155 30.4849 37.8155 30.3029 37.9065C30.2119 39.4535 30.2119 41.046 30.3939 42.593C30.4394 42.593 30.4394 42.5475 30.4394 42.502C30.5759 42.5475 30.5304 42.775 30.6669 42.775C30.6669 42.957 30.5304 42.957 30.3939 42.9115C30.4849 43.685 30.6214 44.504 30.8034 45.2775C30.9399 44.777 31.5314 45.1865 31.8044 45.2775C31.5314 45.5505 31.1219 45.5505 30.8489 45.2775C31.5769 48.69 33.0329 51.9205 35.0349 54.787V54.6505C35.3989 54.5595 35.4899 55.0145 35.3079 55.242C36.1269 56.334 37.0369 57.3805 37.9924 58.336C38.0834 58.336 38.1744 58.3815 38.2654 58.4725V58.609C39.3119 59.61 40.4494 60.52 41.6779 61.339H41.9964L41.9509 61.4755H41.9964L42.1329 61.43L42.0874 61.521C42.3604 61.703 42.6334 61.885 42.9064 62.0215C42.9064 61.9305 43.0429 61.794 42.9974 61.521C43.4069 61.6575 43.0884 61.7485 43.1339 62.1125C43.5889 62.3855 44.0439 62.613 44.4989 62.8405C44.4989 62.5675 44.5899 62.3855 44.8629 62.3855C44.8174 62.613 44.8174 62.8405 44.6354 62.886C45.6819 63.3865 46.7739 63.8415 47.8659 64.2055C47.9114 64.2055 47.9569 64.2055 48.0024 64.251C48.1844 64.2965 48.3209 64.342 48.5029 64.433V64.342L48.6849 64.3875L48.8669 64.433L48.9124 64.4785C49.5494 64.6605 50.1409 64.797 50.7779 64.9335C50.7324 64.7515 50.6869 64.5695 50.7324 64.3875C50.8234 64.4785 50.9599 64.524 51.0964 64.524C51.1874 64.797 51.0509 64.8425 51.0054 64.979C54.0539 65.5705 57.1934 65.616 60.2419 65.1155C60.3329 64.342 60.5604 63.5685 60.9244 62.8405L61.1974 63.1135ZM31.7589 46.6425C31.1219 46.961 32.1684 47.0065 31.7589 46.6425V46.6425ZM61.6069 57.6535L61.3794 57.699C61.3794 57.4715 61.2429 57.426 61.2429 57.1985L61.2884 57.0165L61.1064 56.971C61.1519 56.7435 61.4704 56.7435 61.3794 56.334C61.4704 56.7435 62.1529 56.4705 62.3804 56.7435C62.3349 57.1985 62.1074 57.608 61.7434 57.9265L61.6069 57.6535ZM62.6079 59.519V59.246C62.6989 59.246 62.7444 59.2005 62.7444 59.1095C62.9719 59.1095 62.9264 59.7465 62.6079 59.519ZM63.7454 58.609C63.4269 58.5635 62.8809 58.518 62.7444 59.0185C62.4714 58.7455 62.0619 58.7 61.7434 58.882C62.1074 58.4725 62.1984 57.8355 62.6079 57.4715V57.608H62.7444C62.8354 57.699 62.9719 57.7445 63.1084 57.7445C63.4724 57.4715 63.0629 56.9255 63.1084 56.5615C63.3359 57.062 63.5634 56.3795 63.9729 56.698C63.8819 56.8345 63.6999 56.8345 63.7454 57.1075H63.8819L63.8364 57.335L64.0184 57.4715C64.0639 57.699 63.8819 57.699 63.8819 57.881H64.3824L64.3369 58.1085L64.5189 58.245C64.3369 58.7 64.3824 59.2915 64.1549 59.6555L63.9729 59.61L64.0184 59.792C63.5179 59.8375 64.0639 58.791 63.2904 59.155C63.1084 58.6545 63.6544 58.882 63.7454 58.609ZM62.6079 57.335C62.6989 57.153 62.7899 56.9255 63.1084 56.9255C62.9719 57.1075 62.9719 57.426 62.7444 57.426V57.335H62.6079ZM62.3804 50.419C62.0164 50.2825 61.6524 50.237 61.2429 50.2825C61.2884 50.0095 61.1519 49.7365 60.8789 49.6455C61.1519 49.327 62.0164 49.6 62.5169 49.509V50.0095L62.3349 50.146L62.3804 50.419ZM60.0144 37.315H59.8779L59.9234 37.0875L59.7414 36.951C59.9234 36.5415 60.2874 36.405 60.8789 36.4505L60.8334 36.587L60.8789 36.7235C61.1519 37.042 60.9699 37.0875 61.1064 37.3605V37.497H61.2429C60.7424 37.861 60.3784 38.3615 59.7414 38.2705C59.7869 37.861 60.1509 37.861 60.0144 37.315ZM60.7424 33.129H61.4704L61.4249 33.3565L61.6069 33.493C61.3794 33.7205 61.0609 33.8115 60.7424 33.766C60.9699 33.5385 60.7424 33.4475 60.7424 33.129ZM61.7434 28.579C62.1074 28.6245 62.1074 29.0795 62.2439 29.3525C61.6069 29.398 61.1064 29.3525 61.0154 28.852C61.1974 28.6245 61.5614 28.9885 61.7434 28.579ZM61.6069 24.1655C61.8799 24.2565 62.0619 24.5295 61.9709 24.8025C61.8799 24.575 61.5159 24.575 61.6069 24.1655ZM62.8809 46.0055C62.8809 46.2785 62.3349 46.051 62.1529 46.142C62.1074 45.869 62.6534 46.0965 62.8809 46.0055ZM62.6079 33.675C62.6079 33.4475 63.0174 33.584 62.9719 33.2655C63.3359 33.402 62.9264 33.8115 62.6079 33.675ZM62.8809 44.322C63.1539 44.322 63.1539 44.6405 63.1084 44.959C62.5624 44.959 62.8809 44.7315 62.8809 44.322ZM62.1074 44.049C62.0619 43.776 62.2894 43.8215 62.4714 43.776C62.4259 43.958 62.2894 44.0945 62.1074 44.049ZM61.8799 39.499C62.2439 39.317 62.0619 40.227 61.7434 40.136C61.8799 39.954 61.9254 39.7265 61.8799 39.499ZM61.8799 30.126C61.8344 30.581 61.2884 30.308 61.0154 30.2625C61.1519 29.944 61.5614 30.035 61.8799 30.126ZM60.5149 47.4615C61.0154 47.416 61.0154 47.871 61.3794 47.962C61.3339 48.144 61.0609 48.053 60.8789 48.0985C61.1064 47.507 60.3784 47.9165 60.5149 47.4615ZM61.1064 38.225C61.5614 38.225 61.7434 38.68 61.3794 38.862L61.3339 38.68L61.1519 38.6345C60.9244 38.5435 61.1519 38.4525 61.1064 38.225ZM61.1064 38.862L61.2429 38.9075L61.3794 38.953C61.9254 39.3625 61.2429 40.3635 61.1064 40.9095L60.9244 40.864L60.8789 41.046C60.4694 40.8185 60.7424 39.5445 60.6059 39.3625C60.7879 39.1805 61.1064 39.1805 61.1064 38.862ZM60.6059 45.505C60.9244 46.415 61.3339 46.0055 60.6059 45.505V45.505ZM61.1064 43.685C61.3339 43.8215 61.7889 43.685 61.7434 44.0945C61.3794 44.0945 61.0609 44.0945 61.1064 43.685ZM61.4704 32.219C61.4704 32.5375 61.0609 32.2645 60.9699 32.219C61.1064 31.8095 61.2884 32.128 61.4704 32.219ZM59.8779 47.689H60.2419V47.962H59.8779V47.689ZM60.2419 48.7355C60.2874 48.599 60.3329 48.508 60.4694 48.4625C60.8334 48.4625 60.7879 48.8265 60.9699 48.963L60.7879 49.0085L60.8334 49.1905C60.6059 49.236 60.3784 49.1905 60.1964 49.054L60.2419 48.872V48.7355ZM62.1074 48.235C62.1074 48.0985 62.0619 48.0075 61.9709 47.962C62.1529 47.416 62.5169 47.9165 62.8354 47.962C62.7444 48.1895 62.3349 48.0985 62.1074 48.235ZM63.3814 48.872C63.3359 49.2815 62.6989 49.145 62.7444 48.7355C62.9719 48.69 63.1994 48.7355 63.3814 48.872ZM62.9719 39.9085C62.6989 39.3625 62.6534 38.68 62.8354 38.0885H63.1994L63.2449 38.2705L63.4269 38.225C63.5179 38.8165 63.3359 39.408 62.9719 39.9085ZM63.7454 48.7355C63.5634 48.69 63.4724 48.508 63.5179 48.326C63.6544 48.417 63.7454 48.5535 63.7454 48.7355ZM65.4744 34.312C65.4744 34.7215 65.1104 34.8125 64.7464 34.8125C64.7464 34.403 65.1559 34.403 65.4744 34.312ZM65.1104 29.3525C64.1094 29.7165 65.9294 29.125 65.1104 29.3525V29.3525ZM66.9759 27.1685C67.2944 27.5325 67.2489 27.032 67.6129 27.032C67.6129 27.487 67.3399 27.578 67.1124 27.8055C66.8394 27.8055 67.0214 27.3505 66.9759 27.1685ZM67.3399 23.8925C66.9304 23.483 66.9759 24.393 67.3399 23.8925V23.8925ZM68.2044 45.7325H68.0679C68.0679 46.051 67.8404 46.142 68.0679 46.3695C67.8859 46.5515 67.4764 46.415 67.4309 46.779L67.2489 46.7335L67.0669 46.688C66.8394 46.2785 66.6574 45.414 67.0669 45.141C67.2944 45.8235 67.7949 44.959 68.2954 45.5505L68.1134 45.596L68.2044 45.7325ZM67.9769 50.055C68.0679 49.782 68.7049 50.0095 68.6139 50.328C68.2954 50.328 68.2044 50.1005 67.9769 50.055ZM68.4774 55.1055C68.4319 55.333 68.3409 55.0145 68.3409 54.8325C68.3864 54.605 68.4774 54.9235 68.4774 55.1055ZM68.2044 51.329C67.7949 51.329 67.7494 51.693 67.7039 52.1025L67.6584 52.2845L67.8404 52.239C67.4309 52.8305 67.3399 53.7405 66.6119 53.9225C66.3389 53.1035 66.6574 52.2845 66.8394 51.602V51.7385H67.2034V51.4655H66.9304L66.8849 51.2835L66.8394 51.4655C66.7484 51.511 66.7029 51.42 66.7029 51.329L66.9304 51.1925L66.7029 51.056C66.6119 50.965 66.6119 50.692 66.4754 50.6465C66.6119 50.2825 66.9759 50.8285 67.1124 50.9195C67.2944 50.8285 67.4764 50.692 67.6129 50.51C67.8404 50.783 68.1589 50.9195 68.2044 51.329ZM65.8384 58.882C66.0204 58.9275 66.1114 59.974 65.7019 59.792C65.7474 59.4735 65.6564 59.064 65.8384 58.882ZM65.2469 55.242C65.2924 54.969 65.7019 55.1055 65.7474 54.8325C66.2479 55.0145 65.7019 55.3785 65.2469 55.242ZM65.9749 56.9255C65.9294 56.607 66.2024 56.6525 66.1114 56.2885C66.5664 56.152 66.2479 57.0165 65.9749 56.9255ZM64.6099 42.775C64.3369 42.8205 64.2914 42.684 64.1094 42.6385C64.0639 42.411 64.7919 42.411 64.6099 42.775ZM64.8374 44.595H64.2004C64.2914 44.3675 64.4279 44.14 64.5644 43.958C64.7919 44.049 64.7919 44.3675 64.8374 44.595ZM64.3369 41.0915V40.8185H64.5644V41.0915H64.3369ZM64.4734 35.3585C64.3824 35.2675 64.2459 35.222 64.1094 35.222V34.8125C64.3369 34.8125 64.3824 34.676 64.6099 34.676C64.7009 35.0855 64.4279 35.04 64.4734 35.3585ZM63.8364 34.585C63.8819 34.403 64.0639 34.403 64.1094 34.1755C64.4279 34.221 64.1094 34.676 63.8364 34.585ZM64.2459 50.692C64.1094 50.51 63.8819 50.3735 63.8819 50.055C64.1094 50.146 64.2004 50.3735 64.2459 50.692ZM64.3369 52.9215C64.2459 53.3765 64.0639 53.058 63.8364 52.9215C63.8819 52.5575 64.0639 53.1035 64.3369 52.9215ZM64.1094 48.508C64.4734 48.508 64.7919 48.5535 64.7464 49.0085C64.6099 48.7355 64.1094 48.872 64.1094 48.508ZM65.1104 49.2815C65.0649 49.509 64.8829 49.6 64.6099 49.5545C64.4734 49.145 64.8829 49.2815 65.1104 49.2815ZM66.2024 44.595H65.2014C64.9739 44.14 64.8374 43.6395 64.8374 43.1845C65.5199 43.0025 66.2479 43.594 66.2024 44.595ZM65.1104 40.2725C65.2924 40.318 65.3834 41.3645 64.9739 41.1825C64.9739 40.864 64.9284 40.4545 65.1104 40.2725ZM65.6109 50.692C65.5199 51.5565 65.9294 51.875 65.7474 52.512L65.5654 52.4665L65.5199 52.6485C65.0194 52.239 64.9284 51.3745 64.6554 50.692C65.0649 50.9195 65.1104 50.9195 65.6109 50.692ZM65.3379 45.0955H66.3389C66.5209 45.7325 65.9749 45.6415 65.9749 46.142C65.5199 46.051 65.2924 45.7325 65.3379 45.0955ZM66.4754 43.412C66.6119 43.0025 66.8849 43.4575 66.9759 43.5485C66.9304 43.867 66.6574 43.412 66.4754 43.412ZM66.9759 44.7315H66.6119V44.322C66.8849 44.2765 66.9759 44.413 66.9759 44.7315ZM66.7029 46.6425C66.5209 47.052 66.2934 46.3695 66.0659 46.3695C66.1114 46.233 66.2934 46.2785 66.2934 46.0965C66.6119 46.1875 66.4754 46.6425 66.7029 46.6425ZM66.9759 48.0985C67.0214 48.053 66.6119 47.962 66.6119 47.962C66.5664 47.7345 67.2489 47.78 66.9759 48.0985ZM66.1114 48.872C66.4299 48.781 66.3389 49.145 66.6119 49.145C66.5209 49.4635 65.9749 49.1905 66.1114 48.872ZM67.4764 35.495C67.0214 36.0865 68.2044 35.6315 67.4764 35.495V35.495ZM67.2034 34.585C67.0214 34.4485 66.9304 34.2665 66.9304 34.0845C67.0669 34.1755 67.2489 34.221 67.4309 34.221C67.5219 34.4485 67.2489 34.3575 67.2034 34.585ZM67.4764 34.676C67.5219 34.494 67.7039 34.494 67.7039 34.2665C68.0224 34.3575 67.7039 34.8125 67.4764 34.676ZM67.2034 31.1725C67.2489 30.945 67.4309 30.854 67.7039 30.8995C67.6129 31.0815 67.4309 31.218 67.2034 31.1725ZM67.8404 40.409C68.0679 40.3635 68.0679 41.137 67.7039 40.9095C67.7039 40.682 67.8859 40.682 67.8404 40.409ZM67.9769 31.582C67.6129 31.3545 68.2044 31.036 68.4774 31.0815C68.4319 31.3545 68.0679 31.3545 67.9769 31.582ZM67.4764 29.762C67.5219 29.307 67.8859 29.2615 68.2044 29.125C68.2044 29.489 67.8859 29.762 67.4764 29.762ZM67.1124 28.852V28.579H67.7494C67.6584 28.761 67.2034 29.125 67.1124 28.852ZM67.4764 31.582V31.9915C67.1124 31.9005 67.1579 32.1735 66.8394 32.128C66.8849 31.8095 67.1579 31.582 67.4764 31.582ZM66.7029 30.8085C66.6119 30.8995 66.6119 30.035 66.9304 30.1715C66.9759 30.4445 66.7939 30.5355 66.7029 30.8085ZM66.7029 34.676C67.2489 34.676 66.7939 35.222 66.7029 35.313C66.3389 35.222 66.8849 34.9945 66.7029 34.676ZM66.2024 31.9915C65.9294 31.9005 66.4754 31.582 66.4754 31.3545C66.8394 31.491 66.3389 31.8095 66.2024 31.9915ZM66.2024 32.6285C66.1114 32.6285 66.0659 32.4465 66.0659 32.3555C66.2934 31.9005 66.3389 32.583 66.2024 32.6285ZM66.1114 33.9025C66.2024 33.948 66.2479 34.039 66.3389 34.039V34.312C66.2024 34.312 66.1114 34.3575 66.1114 34.4485C65.7929 34.403 66.2479 34.221 66.1114 33.9025ZM66.1114 41.0915L66.2934 41.137L66.4754 41.1825C66.5209 41.865 67.1124 42.0015 67.7039 42.0925C67.6584 42.6385 66.5664 42.7295 66.3389 42.593L66.4754 42.411L66.3389 42.229C66.3389 41.865 66.0204 41.865 65.7019 41.8195C65.7474 41.4555 66.0659 41.41 66.1114 41.0915ZM65.4744 35.7225C65.6564 35.131 66.1114 35.586 65.4744 35.7225V35.7225ZM65.7474 25.9855C65.5199 25.94 65.4744 25.758 65.4744 25.485C65.7019 25.485 65.7474 25.6215 65.9749 25.6215C65.9294 25.758 65.7474 25.8035 65.7474 25.9855ZM63.9729 32.492C63.9274 32.037 64.4279 32.0825 64.7009 31.9915C64.8374 32.5375 64.4279 32.5375 63.9729 32.492ZM63.8364 27.1685C63.9274 26.85 63.9729 27.214 63.9729 27.1685C64.0184 27.6235 63.6999 27.8965 63.8364 27.1685ZM65.2469 53.5585C65.2469 53.786 65.3834 53.8315 65.3834 54.059C65.9294 54.059 65.1559 53.513 65.7474 53.5585L65.7929 53.7405L65.9749 53.695V54.4685C65.1559 54.7415 64.6554 55.333 63.6089 55.3785L63.5634 55.1965L63.3814 55.151C63.3359 54.787 63.6544 54.8325 63.8819 54.7415C63.7909 54.605 63.7454 54.423 63.7454 54.241C64.4279 54.1955 64.3824 53.422 65.2469 53.5585ZM63.6089 54.332C63.6089 54.696 63.0629 54.605 63.1084 54.1955C63.3814 54.15 63.4269 54.2865 63.6089 54.332ZM63.9729 61.612C63.7454 61.339 63.4269 61.157 63.3359 60.702C63.4269 60.793 63.9274 61.0205 63.9729 60.702C64.1549 60.9295 64.4734 61.0205 64.4734 61.4755C64.2914 61.521 64.0184 61.43 63.9729 61.612ZM64.8374 63.432C64.7464 63.523 64.6099 63.5685 64.4734 63.5685C64.2914 63.3865 64.3369 63.0225 64.3369 62.6585C64.6554 62.6585 64.7464 62.8405 64.8374 63.068L64.7919 63.25L64.8374 63.432ZM65.2469 63.432L65.2924 63.2045L65.1104 63.068C65.2014 62.9315 65.2469 62.8405 65.1104 62.795C65.4744 62.4765 65.7474 63.341 66.1114 63.432C66.0204 63.705 65.3379 63.5685 65.2469 63.432ZM65.8384 60.5655C65.7474 60.156 65.9294 60.065 66.1114 59.9285C66.2934 59.974 66.1569 60.6565 65.8384 60.5655ZM66.3389 57.062C66.6119 57.1075 66.4754 57.6535 66.7029 57.699C66.6119 58.0175 66.2024 57.4715 66.3389 57.062ZM67.6129 54.059L67.4309 54.1955L67.6129 54.332C67.5674 54.6505 67.6129 54.969 67.7494 55.242C67.4764 55.151 67.5674 55.4695 67.3854 55.515C66.9759 55.3785 66.8394 54.878 66.7484 54.332C67.1579 54.423 67.3399 53.422 67.6129 54.059ZM66.9759 56.5615C67.4309 56.3795 67.0669 57.0165 67.3399 56.971C67.2944 57.1985 66.9304 56.789 66.9759 56.5615ZM67.4764 58.518C67.2944 58.9275 67.3399 58.063 67.3399 57.881C67.5219 57.426 67.4764 58.2905 67.4764 58.518ZM67.3399 56.152C67.6129 55.8335 68.0679 55.7425 68.4774 55.879L68.6594 55.9245L68.8414 55.97C68.6594 56.5615 68.3409 57.153 67.9769 57.6535C68.1134 57.1075 67.8859 56.4705 67.3399 56.152ZM68.9779 57.8355V57.699C69.5694 57.608 68.3864 58.5635 68.9779 57.8355ZM68.9779 53.149L68.9324 52.967L68.7504 53.0125C68.5684 52.7395 68.5684 52.3755 68.7504 52.1025C68.9779 52.1025 69.0234 52.239 69.2509 52.239C69.1144 52.5575 69.4329 53.2855 68.9779 53.149ZM68.8414 47.052C68.5684 47.0975 68.5684 47.4615 68.3409 47.5525L68.1589 47.507L68.1134 47.689C68.0224 47.6435 67.8859 47.5525 67.8859 47.416L67.9314 47.143L67.8859 46.87H68.2499C68.2499 46.5515 68.0224 46.4605 68.3864 46.3695C68.3864 46.506 68.4319 46.597 68.5229 46.6425C68.4774 46.324 68.8869 46.506 68.8869 46.233L69.0689 46.2785L69.1144 46.0965C69.6604 46.3695 70.1154 46.8245 70.3429 47.416L70.2974 47.5525L70.3429 47.689C70.1609 47.7345 70.0699 47.9165 70.1154 48.0985H69.8424V48.3715L70.0699 48.417L70.2064 48.235H70.7069V48.6445L70.5249 48.69L70.5704 48.872H70.4339L70.2519 48.8265L70.2064 49.0085C69.9334 48.9175 69.7514 48.6445 69.8424 48.3715C69.3419 48.053 69.0234 47.598 68.8414 47.052ZM69.2054 37.5425L69.2509 37.3605L69.0689 37.315V37.1785L69.2509 37.133L69.2054 36.951C69.5694 37.042 69.6604 36.8145 69.9334 36.8145L70.0699 36.9965L70.2974 36.951C70.3429 37.133 70.4794 37.224 70.6614 37.224C70.6159 37.679 70.3429 37.9065 70.4339 38.5435C70.1154 38.8165 69.7969 39.044 69.4329 39.1805L69.3874 38.9985L69.2054 39.044C69.1599 38.8165 69.3419 38.8165 69.3419 38.6345C69.1144 38.3615 68.8869 38.407 69.1144 37.9975L69.2964 38.043L69.3419 37.861H69.4784V37.588L69.2054 37.5425ZM73.3004 35.0855C73.2549 35.586 72.7999 35.7225 72.4359 35.859L72.2539 35.677L72.0264 35.586C72.2539 35.131 72.8454 34.9035 73.3004 35.0855ZM73.0729 33.675C72.6179 34.2665 73.8009 33.8115 73.0729 33.675V33.675ZM72.3449 56.2885L72.1629 56.243L72.1174 56.425C71.8899 56.2885 71.6169 56.243 71.3894 56.2885C71.3439 55.879 71.2529 55.515 71.1164 55.1055C71.5714 55.1055 71.6624 54.7415 72.1174 54.696C72.0719 54.4685 72.0719 54.15 71.7534 54.1955C72.0264 54.1045 72.5269 54.059 72.2539 53.695C71.7989 53.058 72.7999 54.1955 72.6179 53.2855L72.7999 53.331L72.9819 53.2855C73.2094 53.604 73.3914 53.968 73.4824 54.332C72.8909 54.8325 72.6634 55.606 72.3449 56.2885ZM73.0729 56.5615C72.7089 56.425 73.2094 56.1975 73.2094 56.061C73.4824 56.061 73.0729 56.3795 73.0729 56.5615ZM69.7059 44.322C70.0244 43.958 70.3884 43.6395 70.8434 43.412L70.7979 43.594L70.9799 43.5485C71.2529 43.8215 71.3439 44.231 71.2074 44.595C70.6159 44.3675 70.1609 44.7315 69.7059 44.322ZM70.8434 46.415C70.5249 46.7335 70.3429 46.051 70.1154 45.9145C70.2519 45.596 70.8434 46.0055 70.8434 46.415ZM69.9789 40.136C70.0244 39.59 70.4794 39.5445 70.8434 39.3625L70.8889 39.5445L70.9344 39.7265C71.0254 40.318 70.3884 40.136 69.9789 40.136ZM71.2074 40.5455C71.2529 40.8185 71.1164 41.0915 70.8434 41.1825L70.7069 41.137L70.5704 41.1825C70.5704 40.955 70.4794 40.773 70.3429 40.682C70.3884 40.409 70.9344 40.6365 71.2074 40.5455ZM71.0709 53.9225H71.3439V54.332H70.9799C70.9344 54.1045 71.0709 54.1045 71.0709 53.9225ZM72.3449 33.129C71.5714 33.311 72.0264 33.766 72.3449 33.129V33.129ZM72.4359 34.4485C72.3904 34.6305 72.2084 34.6305 72.2084 34.858C72.0719 34.858 72.1174 34.6305 72.0719 34.4485H72.4359ZM72.0719 39.3625V39.772C71.7989 39.8175 71.6624 39.681 71.7079 39.3625H72.0719ZM72.2084 44.4585C72.6634 44.322 72.4359 45.141 72.3449 45.232C72.0264 45.232 72.2539 44.686 72.2084 44.4585ZM72.7089 44.322C72.5724 44.14 72.2084 44.1855 72.2084 43.8215H72.7089V44.322ZM72.7999 47.052C72.6634 47.325 72.2994 47.325 71.9354 47.325C72.0719 47.0065 72.3904 46.87 72.6634 47.0065C72.7544 47.0065 72.7999 47.0065 72.7999 47.052ZM72.5724 46.142C72.5724 46.4605 72.1629 46.1875 72.0719 46.142C72.1629 45.7325 72.3449 46.2785 72.5724 46.142ZM71.9354 43.8215C71.5259 43.8215 71.6624 43.23 71.4349 43.048C71.6169 42.7295 72.0719 43.321 71.9354 43.8215ZM73.2094 48.4625H72.9819C72.9819 48.2805 72.9819 48.0985 72.8454 48.053C72.7999 47.78 73.6189 48.326 73.2094 48.4625ZM72.4359 43.139C71.7989 43.0025 72.3449 42.0925 72.6634 42.0925L72.7999 42.138L72.9364 42.0925C72.8454 42.502 72.6634 42.8205 72.4359 43.139ZM71.9354 32.219C71.9354 31.9915 72.0719 31.946 72.0719 31.7185C72.1629 31.673 72.2084 31.764 72.2084 31.855C72.2539 32.037 72.5269 31.946 72.7089 31.9915C72.9819 32.0825 72.1629 32.1735 71.9354 32.219ZM72.2084 29.489C72.2994 29.125 72.3904 29.671 72.5724 29.6255C72.4359 30.035 72.3449 29.489 72.2084 29.489ZM72.2994 30.672C71.7989 30.217 72.0264 31.0815 72.2994 30.672V30.672ZM71.8444 27.5325C71.5714 27.3505 71.4804 27.032 71.3439 26.759C71.7534 26.85 71.8899 26.5315 72.0719 26.759C71.9809 27.032 71.7534 27.123 71.8444 27.5325ZM71.2074 32.219C71.1164 32.128 70.9799 32.0825 70.8434 32.0825C70.7524 31.582 71.2984 31.8095 71.3439 31.4455C71.7079 31.673 70.9799 31.764 71.2074 32.219ZM70.9344 34.5395C70.8434 34.767 70.4794 34.767 70.4339 35.04C70.1154 34.9035 70.7069 34.585 70.9344 34.5395ZM69.9334 33.766C69.8879 33.3565 70.3429 33.493 70.5704 33.3565C70.4794 33.6295 70.3429 33.857 69.9334 33.766ZM69.0689 39.9085C68.7049 40.318 69.5239 40.2725 69.0689 39.9085V39.9085ZM69.0689 41.865C69.0234 42.047 68.8869 42.138 68.7049 42.138C68.7504 41.956 68.9324 41.8195 69.0689 41.865ZM70.3429 50.692C70.0244 50.5555 70.3884 50.146 70.7069 50.2825C70.7069 50.5555 70.2974 50.3735 70.3429 50.692ZM70.5704 52.239C70.6159 52.5575 70.2064 52.3755 70.2064 52.6485C70.0244 52.603 70.1154 52.33 70.0699 52.148C70.3429 52.057 70.3884 52.1935 70.5704 52.239ZM72.5724 58.882L72.3904 58.8365L72.4359 59.0185C71.7534 59.2005 70.9799 59.1095 70.5704 59.2915C70.6159 59.3825 70.7069 59.428 70.7069 59.5645L70.5249 59.61L70.5704 59.792C70.6159 59.883 70.5249 59.9285 70.4339 59.9285L70.3884 59.7465L70.3429 59.9285C70.0244 59.792 69.6149 59.792 69.6149 59.428L69.6604 59.246L69.6149 59.064C69.9789 58.973 69.7514 58.882 69.7514 58.5635C70.0244 58.609 70.0699 58.4725 70.2519 58.427C70.3429 58.1995 70.1154 57.6535 70.3884 57.6535L70.4339 57.8355L70.6159 57.79H70.7524L70.7069 57.9265L70.7524 58.063V58.1995C70.7524 58.609 71.0709 58.6545 71.3894 58.7C71.2984 58.5635 71.1164 58.5635 71.1164 58.2905C71.8444 58.1085 72.0719 58.2905 72.6179 58.5635C72.5269 58.7 72.7999 58.8365 72.5724 58.882ZM73.4369 58.7455H73.3004L73.3459 58.5635L73.3004 58.3815H73.4369L73.3914 58.5635L73.4369 58.7455ZM73.3004 58.245H73.1639V58.3815C72.9364 58.1995 72.6634 58.1085 72.6634 57.7445C72.9819 57.608 73.2549 57.335 73.3004 56.971C73.4824 57.0165 73.3914 57.2895 73.4369 57.4715L73.3004 57.7445L73.5279 57.881C73.4369 57.972 73.4824 58.1995 73.3004 58.245ZM73.5734 53.9225C73.3004 53.8315 73.4369 53.0125 73.5734 52.876C74.0739 53.0125 73.6644 53.6495 73.5734 53.9225ZM72.9364 38.0885C73.0274 37.952 73.0729 37.77 73.0729 37.588C73.4824 37.7245 73.3459 37.588 73.8009 37.588C74.1194 37.7245 73.5279 38.0885 73.9374 38.225C73.8464 38.4525 73.1639 38.134 72.9364 38.0885ZM73.0729 34.5395C73.2094 34.039 73.4824 34.5395 73.9374 34.403C73.8919 35.1765 73.5279 34.4485 73.0729 34.5395ZM75.8029 26.8955C75.4844 26.941 75.4844 26.6225 75.4389 26.395H75.8029C75.6209 26.6225 75.8029 26.5315 75.8029 26.8955ZM75.1659 44.322H74.9384L74.9839 44.14L74.8019 44.0945V43.8215H74.5744L74.6199 43.6395L74.4379 43.594C74.4834 43.3665 74.3014 43.3665 74.3014 43.1845L74.3469 42.957L74.5289 42.8205C74.6654 42.8205 74.7564 42.866 74.7564 42.957C75.1204 42.866 74.9384 42.229 75.3934 42.1835V42.32H75.5299C76.4399 42.9115 75.4844 43.7305 75.1659 44.322ZM75.5754 47.5525L75.4389 47.507L75.3024 47.5525C75.2114 47.4615 75.1659 47.2795 75.1659 47.143C75.5299 47.0975 75.6209 47.234 75.5754 47.5525ZM76.4399 43.5485C76.3034 43.8215 76.2124 44.14 76.1669 44.4585C75.4389 44.413 75.9849 43.503 76.4399 43.5485ZM76.2579 41.9105L76.2124 42.0925C75.9394 42.138 75.8939 42.0015 75.7119 41.956V41.865H75.5754C75.7119 41.6375 75.7574 41.3645 75.7119 41.0915H76.3489C76.1669 41.2735 76.1669 41.8195 76.6219 41.7285C76.6219 41.865 76.5764 41.956 76.4854 42.0015L76.2579 41.9105ZM76.3034 38.7255V38.0885C76.7129 38.043 76.8494 38.771 76.3034 38.7255ZM76.8039 44.595C76.9859 44.686 77.2134 44.777 77.1679 45.0955C76.9859 45.0955 76.7129 45.05 76.6674 45.232C76.3034 45.05 76.7584 44.7315 76.8039 44.595ZM76.6674 40.045C76.3489 39.863 76.8494 39.499 76.8949 39.2715C77.3044 39.499 76.8494 39.954 76.6674 40.045ZM76.4399 37.5425C76.6674 37.5425 76.7129 37.679 76.9404 37.679C76.9859 37.9065 76.2124 37.9065 76.4399 37.5425ZM75.9394 32.9925C75.9394 32.6285 76.5309 32.674 76.6674 32.856C76.6674 33.1745 76.1669 32.947 75.9394 32.9925ZM76.1669 36.769C75.7119 36.769 75.8484 36.587 75.9394 36.2685C76.3944 36.2685 76.2579 36.4505 76.1669 36.769ZM75.9394 39.135C75.7119 39.135 75.6664 38.953 75.4389 38.9985C75.4389 38.589 76.0304 38.68 75.9394 39.135ZM75.5754 38.4525C75.3024 38.862 74.6654 38.68 74.3469 38.4525C74.2104 37.133 75.4389 37.6335 75.5754 38.4525ZM74.5744 34.039C74.5744 33.7205 74.9839 33.9935 75.0749 34.039C74.9839 34.4485 74.8019 33.9025 74.5744 34.039ZM74.1649 31.4455C74.4379 31.491 74.4834 31.7185 74.6654 31.855C74.7109 31.9915 73.9829 31.9005 74.1649 31.4455ZM73.3004 28.852L73.5279 28.8975L73.6644 28.7155C74.0284 28.8975 74.2559 29.216 74.3014 29.6255C73.8009 29.5345 73.2549 29.489 73.3004 28.852ZM74.3014 56.789V56.6525C74.8929 56.5615 73.7099 57.517 74.3014 56.789ZM75.0749 52.239C75.0294 51.875 75.1204 51.693 75.4389 51.7385C75.6664 51.966 75.3934 52.239 75.0749 52.239ZM74.0739 50.1915C74.1194 50.055 74.3014 50.1005 74.3014 49.9185L74.4834 49.964L74.5289 49.782H74.6654C75.1659 49.4635 74.1194 48.963 74.5289 48.7355L74.5744 48.872L74.6199 48.7355C74.8019 48.6445 75.1204 48.6445 74.9839 48.235C75.2569 48.508 75.3024 48.508 75.6209 48.235L75.7119 48.4625L75.8939 48.6445C75.8484 48.9175 75.9849 49.0085 76.0304 49.145L75.9849 49.327L76.1669 49.3725C75.6664 50.055 75.0294 50.6465 74.0739 50.1915ZM76.0759 48.3715L76.1214 47.9165L75.6664 47.871V47.7345L75.8484 47.689L75.6664 47.6435C75.6664 47.507 75.8029 47.5525 75.8939 47.507C75.8939 47.2795 75.7574 47.234 75.7574 47.0065C76.1214 46.9155 76.4399 46.779 76.7584 46.597L76.8039 46.779L76.9859 46.7335C76.7584 47.3705 77.0314 48.599 76.4854 48.963L76.4399 48.781L76.2579 48.8265C76.3489 48.5535 76.2124 48.417 76.0759 48.3715ZM77.6684 53.149L77.4864 53.1945L77.5319 53.3765C77.0314 53.4675 77.0314 53.0125 76.5309 53.1035L76.5764 52.876L76.4399 52.785C76.5764 52.421 77.2134 52.5575 77.6684 52.512L77.6229 52.694L77.8049 52.7395C77.8504 52.967 77.6684 53.0125 77.6684 53.149ZM77.4409 37.315C77.5319 37.1785 77.5774 37.0875 77.4409 37.042C77.6229 36.678 78.1234 37.0875 78.3054 37.1785C78.3054 37.5425 77.5774 37.4515 77.4409 37.315ZM78.3054 44.959C78.2599 45.1865 78.1689 44.868 78.1689 44.686C78.2144 44.4585 78.3509 44.777 78.3054 44.959ZM78.0324 45.505C78.3054 45.4595 78.4419 45.596 78.3964 45.9145C78.3054 45.7325 77.9414 45.8235 78.0324 45.505ZM78.1689 50.055C78.1234 49.5545 79.0789 49.509 79.0334 50.055H78.1689ZM79.8979 48.872C79.7614 49.145 79.4884 48.5535 79.5339 48.235C79.9434 48.144 79.6249 48.8265 79.8979 48.872ZM79.8069 45.6415C79.1699 45.7325 78.9424 45.414 78.5784 45.232C78.6239 44.959 78.7149 44.686 78.8514 44.4585C79.4884 44.4585 79.5794 45.0955 79.8069 45.6415ZM78.5329 40.045C78.5329 39.7265 78.5329 39.408 78.3964 39.135L78.5784 39.1805L78.5329 38.9985C78.8969 38.953 79.1699 39.044 79.2609 39.2715L79.0789 39.317L79.1244 39.499C79.0789 39.772 79.3064 39.7265 79.4884 39.772C79.2609 39.9995 78.8969 40.0905 78.5329 40.045ZM79.3064 35.9955C79.0789 36.314 78.5329 35.7225 78.8059 35.495C79.0789 35.495 79.3064 35.677 79.3064 35.95V35.9955ZM79.0334 32.856C78.6694 33.311 79.4884 33.2655 79.0334 32.856V32.856ZM79.6704 36.9055C79.5339 36.4505 80.0344 36.7235 80.3074 36.6325C80.2619 36.951 79.9889 36.9055 79.6704 36.9055ZM80.5349 34.949C80.0799 34.858 80.2164 35.404 79.8069 35.3585C79.7614 34.9035 79.6249 34.858 79.8069 34.4485C79.9889 34.585 80.4894 34.3575 80.5349 34.949ZM79.6704 32.856C79.9434 32.8105 79.9889 32.947 80.1709 32.9925C80.2164 33.22 79.4884 33.22 79.6704 32.856ZM79.6704 38.225C79.7159 38.68 78.9879 38.316 78.9424 38.6345C78.6239 38.407 79.4884 37.952 79.6704 38.225ZM78.4419 32.219C78.7604 32.037 79.0789 31.946 79.4429 31.8095C79.4884 32.6285 78.8969 32.1735 78.4419 32.219ZM78.6694 30.8995L78.6239 31.0815L78.8059 31.127C78.6239 31.3545 78.4419 31.6275 77.9414 31.5365C77.7594 31.4455 77.9414 31.036 77.7139 31.036C77.8959 30.7175 78.2599 30.6265 78.5784 30.8085C78.5784 30.854 78.6239 30.8995 78.6694 30.8995ZM78.5329 28.579C78.1234 28.1695 78.1689 29.0795 78.5329 28.579V28.579ZM78.1689 29.6255C77.8049 29.58 77.8959 29.125 77.6684 28.9885C77.8049 28.7155 78.6239 29.216 78.1689 29.6255ZM77.9414 28.1695C77.7594 28.5335 77.3044 28.397 77.3044 27.8965C77.5319 27.9875 77.6229 28.215 77.9414 28.1695ZM77.5319 31.946C77.1224 31.582 77.1679 32.4465 77.5319 31.946V31.946ZM77.1679 36.9055C77.1679 37.315 76.4399 37.2695 76.5309 36.769C76.8949 36.678 76.8949 36.951 77.1679 36.9055ZM76.8039 32.0825C76.8949 32.583 76.1214 32.219 75.8029 32.3555C75.7119 31.855 76.4854 32.219 76.8039 32.0825ZM75.5754 23.2555C75.9849 23.392 75.9849 23.938 76.0759 24.4385L75.9394 24.393L75.8029 24.4385C75.5754 24.211 75.4844 24.4385 75.1659 24.4385C75.2114 23.9835 75.3479 23.6195 75.5754 23.2555ZM75.0749 32.492C75.4389 32.31 74.7564 31.764 75.4389 31.855V32.492C75.2114 32.4465 74.8929 32.9015 74.9384 32.3555C75.0294 32.31 75.0294 32.401 75.0749 32.492ZM74.9384 28.4425C74.8019 28.4425 74.7109 28.488 74.7109 28.579C74.5744 28.3515 74.2559 28.3515 74.3469 27.942C74.4834 28.124 75.0294 27.9875 74.9384 28.4425ZM73.9374 21.7995C74.6654 21.7085 74.3924 22.664 73.9374 22.7095V21.7995ZM73.9374 28.0785C73.8009 27.942 73.4824 28.033 73.5734 27.669C73.8919 27.578 74.0284 27.7145 73.9374 28.0785ZM73.3004 26.8955C73.3459 26.668 73.5279 26.6225 73.8009 26.6225C73.8919 27.032 73.4824 27.0775 73.3004 26.8955ZM73.5734 22.7095C73.1639 23.5285 74.0284 23.3465 73.5734 22.7095V22.7095ZM73.2094 24.029C73.6189 23.938 73.5734 24.2565 73.8464 24.302C73.7099 24.575 73.0274 24.393 73.2094 24.029ZM73.0729 22.0725C73.0274 22.2545 72.8454 22.3 72.8454 22.482C72.7089 22.482 72.7544 22.2545 72.7089 22.0725H73.0729ZM73.4369 25.9855C73.3459 26.4405 72.8909 26.0765 72.5724 26.122C72.5269 25.8035 73.3459 25.7125 73.4369 25.9855ZM72.4359 24.939C72.1174 24.757 71.9354 24.393 71.9354 24.029C72.2539 23.7105 72.7999 24.5295 72.4359 24.939ZM71.8444 24.939C72.1174 25.0755 72.5724 24.939 72.4814 25.4395C72.1174 25.5305 72.0264 25.303 71.7534 25.303C71.7989 25.212 71.8444 25.0755 71.8444 24.939ZM71.2074 18.933C71.0709 19.1605 70.8434 19.2515 70.5704 19.206C70.7069 19.024 70.9799 18.8875 71.2074 18.933ZM71.0709 24.939C71.1619 25.3485 70.8434 25.3485 71.0709 25.576C71.2984 25.576 71.3439 25.4395 71.5714 25.4395C71.5259 25.667 71.2984 25.758 71.3439 26.0765L71.1619 26.031L71.2074 26.213C71.1619 26.395 70.9799 26.4405 70.9799 26.6225L70.8434 26.577L70.7069 26.5315C70.3429 26.3495 70.4339 25.7125 70.3429 25.212C70.7069 25.2575 70.6159 24.8025 71.0709 24.939ZM70.3429 19.3425C70.3884 19.661 69.9789 19.479 69.9789 19.752C69.6149 19.6155 70.0244 19.206 70.3429 19.3425ZM69.9789 27.5325C70.1154 27.5325 70.0699 27.76 70.1154 27.942H69.7514C69.6604 27.6235 69.9334 27.76 69.9789 27.5325ZM69.0689 19.6155H69.4329C69.4329 19.9795 69.0689 19.934 69.0689 20.2525C68.7959 20.207 69.0234 19.7065 69.0689 19.6155ZM68.8414 20.8895C68.8414 20.844 69.1144 20.662 69.2054 20.753C69.2964 20.844 68.7049 21.117 68.8414 20.8895ZM68.5684 25.7125H69.2054C69.0689 26.122 69.0689 26.577 69.2054 27.032L69.1599 27.214L69.3419 27.2595C68.4774 28.033 68.4774 27.0775 68.3409 26.213C68.7049 26.3495 68.5684 25.94 68.5684 25.7125ZM68.2044 18.842C68.6594 18.751 68.3864 19.4335 68.4319 19.752C68.3409 19.479 68.0224 19.0695 68.2044 18.842ZM68.4774 24.4385C68.3864 24.6205 68.2954 24.848 67.9769 24.848C68.0679 24.6205 68.1589 24.393 68.4774 24.4385ZM67.8404 24.939C67.7494 25.121 67.6584 25.3485 67.3399 25.3485C67.3399 25.212 67.2944 25.121 67.2034 25.0755C67.2034 24.8025 67.6584 25.03 67.8404 24.939ZM67.6129 21.572H66.8849C67.0214 21.3445 67.6129 20.8895 67.6129 21.572ZM66.8394 19.843C67.2034 19.7975 66.9759 20.3435 67.2034 20.3435C67.2034 20.662 66.7939 20.389 66.7029 20.3435C66.8394 20.2525 66.8849 20.0705 66.8394 19.843ZM66.9759 29.6255C66.9304 29.8985 66.2934 29.7165 66.2479 29.6255C66.2934 29.307 66.8849 29.5345 66.9759 29.6255ZM66.3389 21.4355C66.1569 21.299 65.9294 21.2535 65.9749 20.935C66.2934 20.8895 66.3844 21.0715 66.3389 21.4355ZM66.1114 17.5225C66.4299 17.568 66.2024 18.114 65.8384 17.932C65.9294 17.7955 66.1569 17.7955 66.1114 17.5225ZM66.3389 21.7995C66.2479 22.027 66.1114 22.2545 65.9749 22.4365C65.5199 21.9815 65.4289 21.845 66.3389 21.7995ZM65.4744 25.212C65.2014 25.1665 65.2469 24.848 64.9739 24.8025C65.0649 24.2565 65.8384 24.939 65.4744 25.212ZM65.3379 16.203C65.7019 16.4305 65.0649 16.658 64.7009 16.6125C64.7919 16.294 65.2924 16.476 65.3379 16.203ZM65.2469 18.569C65.2469 18.842 64.9284 18.751 65.0194 19.0695C64.5644 19.206 64.7919 18.6145 64.5189 18.569C64.5189 18.296 65.1559 18.478 65.2469 18.569ZM64.7464 21.572C64.2914 21.7085 64.4279 20.9805 64.3824 21.0715C64.6099 20.753 64.9284 21.481 64.7464 21.572ZM64.6099 29.489C63.7909 29.3525 64.3369 29.8985 64.6099 29.489V29.489ZM63.8364 20.662H64.1094V20.935H63.8364V20.662ZM63.9729 25.3485C63.9274 25.5305 63.7909 25.6215 63.6089 25.6215C63.5634 25.303 63.7909 25.3485 63.9729 25.3485ZM63.2449 32.856C63.1994 32.583 63.3359 32.492 63.3814 32.3555C63.6089 32.492 63.6999 32.947 63.2449 32.856ZM63.4724 16.3395C63.4724 16.84 62.9264 16.7035 62.4714 16.749C62.6989 16.5215 63.1994 16.112 63.4724 16.3395ZM62.8809 24.302C63.1539 24.939 63.1994 23.847 62.8809 24.302V24.302ZM62.7444 17.386C62.7899 17.1585 62.9719 17.0675 63.2449 17.113C63.3814 17.5225 62.9719 17.386 62.7444 17.386ZM62.9719 22.9825C63.0174 22.8915 63.1084 22.846 63.1084 22.7095H63.3814C63.4269 22.9825 63.1994 22.9825 62.9719 22.9825ZM62.4714 27.8055C62.8354 27.8965 62.8809 28.306 63.1994 28.4425L63.2449 28.6245L63.4269 28.67C63.1539 28.852 62.8809 28.9885 62.5624 29.0795C62.6989 28.5335 62.2439 28.124 62.4714 27.8055ZM62.2439 27.396C62.0619 27.214 61.9709 26.8955 62.1074 26.759C62.5169 26.8955 62.1984 26.9865 62.2439 27.396ZM62.1074 16.2485C62.0619 16.4305 61.9254 16.5215 61.7434 16.5215C61.7889 16.294 61.9254 16.203 62.1074 16.2485ZM61.6069 24.029H61.1064C61.0154 23.5285 61.6979 23.5285 61.6069 24.029ZM61.1064 18.023C61.1064 18.023 60.8789 17.568 60.8789 17.6135C60.9244 17.295 61.2884 17.841 61.1064 18.023ZM61.0154 25.7125C60.8789 25.849 60.9699 26.213 60.6514 26.122C60.6059 25.849 60.7424 25.7125 61.0154 25.7125ZM61.1064 35.222C60.9699 35.4495 60.7879 35.5405 60.6059 35.3585C60.7424 34.949 60.7879 35.1765 61.1064 35.222ZM60.3784 32.856C60.2874 32.8105 60.2419 32.9015 60.2419 32.9925C60.1054 32.9925 60.1509 32.765 60.1054 32.583C60.3329 32.583 60.3784 32.7195 60.3784 32.856ZM60.1054 31.7185C59.8779 32.1735 59.7414 31.4 59.9689 31.309C60.4239 31.309 59.7414 31.764 60.1054 31.7185ZM60.1054 19.479C60.0599 19.752 59.7869 19.752 59.7414 19.9795C59.4229 19.8885 59.9234 19.479 60.1054 19.479ZM59.6049 32.219C59.0589 32.4465 59.7414 32.8105 59.6049 32.219V32.219ZM59.5139 37.315C59.5594 37.406 59.4684 37.4515 59.3774 37.4515L59.3319 37.2695L59.1499 37.315C59.0134 36.9965 58.6494 36.86 58.6494 36.405C58.9679 36.3595 59.1044 35.859 59.3774 36.132L59.3319 36.314L59.5139 36.2685C59.4229 36.6325 59.3774 36.7235 59.6504 36.9055L59.4229 37.042L59.5139 37.315ZM56.0104 58.245H55.6464L55.6009 57.972L55.5099 58.245C55.1004 58.0175 54.9184 58.7455 55.3734 58.6545L55.3279 58.8365L55.5099 58.791C55.5554 59.155 55.4644 59.4735 55.2824 59.5645L55.1004 59.519L55.1459 59.701C54.8274 59.883 54.5999 60.247 54.6454 60.611C54.0994 60.2015 53.8264 59.5645 53.9174 58.9275L54.1449 58.973L54.2814 58.791H54.5089C54.5544 58.7 54.6454 58.6545 54.6454 58.518C54.5089 58.427 54.5089 58.1995 54.2814 58.245L54.3269 58.0175L54.1449 57.881C54.0994 57.6535 53.7354 57.7445 53.9174 57.3805L54.0994 57.426L54.2814 57.3805C54.4179 57.3805 54.3724 57.153 54.4179 56.971C54.6454 57.699 55.1914 57.699 55.7829 57.608L55.9649 57.6535L56.0104 57.4715C56.1469 57.4715 56.1014 57.699 56.1469 57.881L55.9649 58.0175L56.0104 58.245ZM55.1459 53.8315C55.0094 53.331 55.5099 53.513 55.5099 53.1945C56.0104 53.2855 55.5099 53.786 55.1459 53.8315ZM55.6464 50.055C55.6919 49.509 55.7829 51.511 55.6464 50.055V50.055ZM55.1459 55.6515C55.4189 55.7425 55.6009 56.0155 55.5099 56.2885C55.1914 56.243 55.2369 56.516 54.8729 56.425C54.8274 56.0155 55.0549 55.9245 55.1459 55.6515ZM54.7819 51.4655C54.4179 51.42 54.5089 50.9195 54.1449 50.8285C54.3724 50.3735 55.0094 50.7375 55.0094 51.238C54.9184 51.2835 54.7819 51.329 54.7819 51.4655ZM54.4179 51.4655C54.4634 51.784 54.0539 51.602 54.0539 51.875C53.8264 51.6475 53.6899 51.329 53.6899 50.965C54.0994 50.9195 54.0539 51.3745 54.4179 51.4655ZM54.0084 55.7425C53.7354 55.697 54.1449 55.3785 54.1449 55.242C54.5544 55.3785 54.0994 55.697 54.0084 55.7425ZM55.8739 49.0085C55.8739 48.69 56.3744 48.8265 56.3744 48.508C56.7384 48.69 56.1469 49.0085 55.8739 49.0085ZM56.2834 49.3725C56.6019 49.3725 56.3289 49.8275 56.2834 49.873C55.9649 49.873 56.2379 49.4635 56.2834 49.3725ZM56.5109 53.2855C56.3289 53.24 56.4199 52.967 56.3744 52.785C56.6019 52.9215 56.6929 53.1035 56.5109 53.2855ZM55.5099 48.599L55.4644 48.417L55.4189 48.235V47.962C55.2369 48.053 54.7819 47.8255 54.7819 48.0985L54.5544 48.053L54.4179 48.235C54.0084 48.144 53.5989 47.9165 53.2804 47.598C53.4624 46.961 54.2359 46.961 54.9184 46.8245L54.8729 47.0065L55.0549 47.052C55.2369 46.961 55.6919 47.1885 55.6919 46.9155L55.7374 46.7335L55.5554 46.688C55.5554 46.324 56.4199 46.779 56.4199 46.415C57.0569 47.234 56.3289 48.508 55.5099 48.599ZM53.1439 63.5685C53.1439 63.4775 53.1894 63.432 53.2804 63.432V63.5685H53.4169C53.4624 63.6595 53.3714 63.705 53.2804 63.705V63.5685H53.1439ZM53.4169 54.605H52.6889C52.7799 54.332 52.9164 54.059 53.0529 53.8315C53.2349 53.968 53.5079 53.968 53.5534 54.241L53.3714 54.3775L53.4169 54.605ZM51.0509 50.692C51.0509 50.783 51.0054 50.8285 50.9144 50.8285L50.8689 50.6465L50.6869 50.692C50.2774 50.5555 50.6414 50.4645 50.5504 50.055C50.7779 49.8275 50.6869 50.055 51.0509 50.055L51.0054 50.237L51.1874 50.1915V50.4645H50.8689L51.0509 50.692ZM50.5504 54.8325C50.8689 54.241 51.3239 54.696 50.5504 54.8325V54.8325ZM50.9144 58.882C50.8689 59.064 50.7324 59.155 50.5504 59.155C50.5959 58.973 50.7324 58.882 50.9144 58.882ZM50.5504 53.9225V53.513C50.7779 53.513 50.8234 53.6495 51.0509 53.6495C51.0054 53.9225 50.8234 53.968 50.5504 53.9225ZM46.6829 46.415L46.7284 46.233L46.5464 46.1875C46.5464 45.596 46.2279 45.778 46.4099 45.141C46.6374 45.3685 47.0469 45.414 47.2744 45.6415V46.2785C47.0469 46.324 46.9104 46.6425 46.6829 46.415ZM47.0469 47.689H46.6829C46.7284 47.507 46.9104 47.507 46.9104 47.2795C47.0924 47.325 47.0469 47.5525 47.0469 47.689ZM47.4109 35.0855C47.4109 35.3585 46.8649 35.131 46.6829 35.222C46.6829 34.949 47.1834 35.1765 47.4109 35.0855ZM47.1834 29.489C47.2744 29.7165 47.7749 29.4435 47.6839 29.8985C47.4564 29.8075 47.1379 29.853 47.1834 29.489ZM47.1834 42.0925C47.1834 41.8195 47.5019 41.9105 47.4109 41.592H47.9114C47.7294 41.8195 47.6384 42.138 47.1834 42.0925ZM47.9114 43.0025C47.1379 42.866 47.6384 43.412 47.9114 43.0025V43.0025ZM46.9104 43.0025C47.0469 43.048 47.0014 43.139 46.9104 43.139C47.0924 43.503 47.0014 43.2755 46.6829 43.2755C46.7284 43.139 46.9104 43.1845 46.9104 43.0025ZM46.8194 44.595C47.0014 44.322 47.5929 44.504 47.8204 44.322C47.7749 44.595 47.6839 44.868 47.5929 45.0955C47.2744 44.959 47.0469 44.7315 46.8194 44.595ZM47.5474 47.325C47.7749 47.507 47.8204 47.78 47.6384 48.0075L47.5474 48.0985C47.3199 48.0985 47.6839 47.6435 47.5474 47.325ZM47.9114 48.599C47.8659 48.9175 47.5474 49.0085 47.5474 49.3725C47.0469 49.236 47.4109 48.4625 47.9114 48.599ZM48.3209 49.0085L48.4574 49.054L48.5939 49.0085C48.6394 49.236 48.8669 49.327 48.8214 49.6455C48.5939 49.782 48.5484 50.146 48.3209 50.2825L48.2754 50.1005L48.0934 50.055C47.7294 49.691 48.0479 49.1905 48.3209 49.0085ZM48.3209 42.0925C48.4119 41.6375 48.9579 42.411 48.5484 42.502H48.3209C48.3664 42.411 48.5029 42.138 48.3209 42.0925ZM49.2764 45.505C49.0034 45.4595 49.0489 45.141 48.7759 45.0955C48.9579 44.7315 49.4584 45.0955 49.2764 45.505ZM49.2764 43.5485C49.4584 42.775 49.8679 44.0035 49.2764 43.5485V43.5485ZM49.0489 46.142C48.9124 45.96 48.6849 45.8235 48.6849 45.505C48.8669 45.6415 49.3674 45.778 49.0489 46.142ZM48.5484 43.685C48.1844 43.5485 48.8214 43.503 48.6849 43.1845C48.8669 43.23 48.7759 43.503 48.8214 43.685C48.6849 43.594 48.5939 43.503 48.5484 43.685ZM48.1844 45.0955C48.0479 45.869 48.7304 45.141 48.1844 45.0955V45.0955ZM48.4119 46.6425C47.7294 47.0065 48.0934 47.3705 48.4119 46.6425V46.6425ZM48.4119 50.8285C48.5484 50.9195 48.7304 50.965 48.9124 50.965C48.9124 51.329 48.3209 51.2835 48.4119 50.8285ZM49.0489 52.512C48.9579 52.7395 48.7759 53.0125 48.5484 52.785C48.6394 52.603 48.8214 52.512 49.0489 52.512ZM48.7759 48.0985C48.9579 47.9165 48.8214 47.4615 49.1399 47.4615L49.2764 47.6435L49.5039 47.598C49.5039 47.689 49.5494 47.7345 49.6404 47.7345L49.5949 47.9165L49.7769 47.871C49.8679 48.326 49.6404 48.417 49.5494 48.6445C49.0944 48.6445 49.1399 48.1895 48.7759 48.0985ZM48.7759 39.226C48.3664 38.771 49.3674 38.1795 48.5484 38.043L48.5939 37.861L48.4119 37.8155C48.3664 37.6335 48.2299 37.497 48.0479 37.406H47.9114V37.5425C47.8204 37.406 47.5929 37.4515 47.5474 37.2695L47.5019 37.0875L47.4564 36.9055C48.1389 36.4505 49.3674 36.7235 50.0499 36.496C49.6859 37.1785 50.5504 37.6335 49.9134 38.043C49.9589 38.225 50.0954 37.9975 50.2774 38.043C50.3684 38.225 50.1409 38.7255 50.4139 38.68C50.2319 39.2715 49.4129 39.135 48.7759 39.226ZM48.7759 24.4385C49.0944 24.393 49.0944 24.7115 49.1399 24.939H48.5029C48.5484 24.666 48.8669 24.757 48.7759 24.4385ZM49.1854 22.846C49.3674 22.9825 49.5039 23.2555 49.4129 23.483C49.1399 23.483 49.1399 23.1645 49.1854 22.846ZM48.3209 24.302C48.4119 24.1655 48.4574 23.9835 48.4574 23.8015C48.7759 23.8015 48.6849 24.302 48.3209 24.302ZM48.6849 28.9885H49.3219C49.0944 29.6255 49.5039 29.8075 49.5494 30.4445C49.0944 30.035 48.1389 30.1715 48.0479 29.398C48.3664 28.943 49.0034 29.671 48.6849 28.9885ZM48.5484 31.946C48.9579 31.9005 48.8214 32.3555 49.2764 32.219C49.1399 32.765 48.9124 32.9925 48.1389 33.129L48.1844 32.947L48.0024 32.9015C48.1844 32.5375 48.5484 32.4465 48.5484 31.946ZM50.1864 16.6125C50.7324 16.6125 50.1409 17.022 50.3229 17.386C50.0044 17.386 50.2319 16.84 50.1864 16.6125ZM50.0499 32.492C50.3229 33.1745 50.3684 32.037 50.0499 32.492V32.492ZM50.4139 33.675C50.3229 34.0845 50.0954 33.857 49.7769 33.8115C49.8679 33.7205 49.9134 33.584 49.9134 33.402C50.3229 33.2655 50.2319 33.584 50.4139 33.675ZM51.1419 44.049C51.0054 44.3675 50.7324 44.5495 50.4139 44.5495C50.2774 44.049 50.7324 44.0035 51.1419 44.049ZM51.5514 25.9855C51.7789 26.213 51.2784 26.8045 50.9144 26.8955C50.5504 26.4405 51.2329 26.1675 51.5514 25.9855ZM51.4149 24.029C51.6424 24.029 51.3694 24.666 51.0509 24.5295C50.9144 24.12 51.4604 24.393 51.4149 24.029ZM52.4159 27.396C52.7344 27.5325 52.4614 28.397 52.1884 27.8965C52.1884 27.7145 52.5524 27.8055 52.4159 27.396ZM53.0074 35.9955C53.3714 36.132 53.6444 36.405 53.7354 36.769C53.4169 36.3595 53.2804 37.0875 53.0074 36.769L53.0529 36.587L52.8709 36.5415C52.5979 36.1775 53.0984 36.405 53.0074 35.9955ZM54.2814 25.7125L54.2359 25.8945L54.4179 25.94C54.0994 26.2585 53.6444 26.4405 53.1894 26.3495C53.3259 26.0765 53.4624 25.849 53.5534 25.576C53.8264 25.576 53.8719 25.8035 54.2814 25.7125ZM54.0084 22.209V21.936C54.2814 21.8905 54.2359 22.118 54.2359 22.3455C54.1904 22.3 54.1449 22.209 54.0084 22.209ZM55.0094 22.9825C54.8729 23.301 54.4179 22.5275 54.7819 22.3455C55.0549 22.482 54.5999 22.846 55.0094 22.9825ZM54.8729 30.8085C55.0549 31.1725 55.3734 31.4 55.0094 31.7185C54.7364 31.582 54.5089 31.2635 54.5089 30.945C54.6909 30.945 54.8729 30.945 54.8729 30.8085ZM56.0104 24.029C56.1469 23.8015 56.1924 23.5285 56.1469 23.2555C56.5564 23.301 56.4199 24.0745 56.0104 24.029ZM56.3744 21.7995C56.5564 21.754 56.6019 21.936 56.7384 21.936C56.8294 22.209 56.1924 22.118 56.3744 21.7995ZM56.1469 31.582C55.7829 32.0825 56.6019 32.128 56.1469 31.582V31.582ZM56.0104 18.4325C55.6919 18.4325 55.9649 17.9775 56.0104 17.932C56.1924 17.9775 56.1924 18.1595 56.3744 18.205C56.3744 18.387 56.0104 18.205 56.0104 18.4325ZM56.1469 31.036C56.1014 31.218 55.9649 31.309 55.7829 31.309C55.7829 31.127 55.9649 31.036 56.1469 31.036ZM56.0104 37.679C56.0559 37.6335 55.6464 37.5425 55.6464 37.5425C55.6009 37.3605 56.3289 37.3605 56.0104 37.679ZM56.2834 42.775C56.3744 43.048 56.6019 43.23 56.5109 43.685L56.3289 43.6395L56.3744 43.8215C56.3289 43.9125 56.2379 43.958 56.2379 44.0945L56.0559 44.14L56.1014 44.322C55.5099 44.3675 55.3279 44.9135 54.5999 44.8225C55.2824 44.231 55.1459 42.866 56.2834 42.775ZM55.1459 45.869C55.5099 45.414 55.8739 45.778 56.0104 45.0955H56.3744C56.5564 45.2775 56.5109 45.6415 56.5109 46.0055C56.1014 46.142 55.6919 46.233 55.2824 46.2785L55.3279 46.051L55.1459 45.869ZM54.5089 37.042C54.6909 36.7235 54.9184 36.8145 55.2369 36.9055C55.1914 37.588 54.8274 37.3605 54.5089 37.042ZM54.0084 36.2685C54.0994 35.9955 54.5544 36.4505 54.5089 36.769C54.1904 36.769 54.3269 36.2685 54.0084 36.2685ZM54.9184 35.859C54.9184 36.1775 54.5089 35.9045 54.4179 35.859C54.4179 35.5405 54.8274 35.8135 54.9184 35.859ZM53.7809 34.949C53.8264 34.494 54.2814 34.858 54.5089 34.949C54.3269 35.131 54.0084 34.9945 53.7809 34.949ZM54.0084 42.0015V42.2745H53.7809V42.0015H54.0084ZM53.5079 28.1695C53.5079 27.8965 54.0539 28.124 54.2359 28.033C54.2814 28.7155 53.7809 28.3515 53.5079 28.1695ZM53.4169 40.682C53.2349 40.6365 53.1439 40.4545 53.1894 40.2725C53.3259 40.318 53.4169 40.5 53.4169 40.682ZM52.4159 33.766C52.6434 33.8115 52.9619 33.8115 52.9164 34.1755C52.5979 34.221 52.3704 34.13 52.4159 33.766ZM51.9154 28.7155V28.0785C52.5979 28.033 52.5979 29.1705 52.0519 28.852L52.0974 28.67L51.9154 28.7155ZM51.6424 25.7125C51.8244 25.576 51.9609 25.3485 52.2794 25.303C52.1884 25.576 52.0519 25.8035 51.6424 25.7125ZM51.9154 26.2585C52.2339 26.4405 52.0064 27.123 51.5514 26.8955C51.6879 26.668 51.8244 26.486 51.9154 26.2585ZM51.5514 27.1685C51.0964 27.76 52.2794 27.305 51.5514 27.1685V27.1685ZM51.4149 28.4425C51.0964 28.4425 51.3694 27.9875 51.4149 27.942C51.7334 27.942 51.4604 28.3515 51.4149 28.4425ZM51.2784 36.496V36.405L51.4604 36.3595L51.4149 36.1775C51.8244 36.1775 52.2794 36.132 52.4159 36.4505L52.2339 36.496L52.2794 36.678H52.1429C52.1429 37.2695 52.5524 37.3605 53.1439 37.315C53.2349 38.407 51.6879 38.771 50.7779 38.7255C50.6869 38.134 51.1874 38.1795 51.2784 37.8155C51.1419 37.2695 50.5504 37.1785 50.5504 36.496C50.7779 36.6325 51.0509 36.6325 51.2784 36.496ZM51.7789 43.139C51.6879 42.6385 52.6434 43.1845 52.5069 42.6385C52.7344 42.684 53.0529 42.684 53.0074 43.048C52.3704 43.0025 52.2794 43.6395 51.7789 43.139ZM52.2794 51.602C51.8699 51.1925 51.9154 52.1025 52.2794 51.602V51.602ZM51.0509 48.4625C50.5959 48.326 50.9599 48.0985 50.9144 47.689H51.4149C51.4604 48.144 50.9599 48.0075 51.0509 48.4625ZM50.7779 46.9155C50.5049 46.8245 50.6414 46.0965 50.7779 46.0055C51.1419 46.142 50.7779 46.688 50.7779 46.9155ZM51.0509 43.8215C50.5959 43.6395 51.3239 43.6395 51.1874 43.321C51.2784 43.412 51.4149 43.4575 51.5514 43.4575C51.5059 43.685 51.0509 43.5485 51.0509 43.8215ZM51.6424 46.9155C51.9154 47.0065 51.9154 47.0975 51.7789 47.325H51.5514C51.5059 47.0975 51.6424 47.0975 51.6424 46.9155ZM51.9154 40.2725C52.1884 40.0905 52.0519 39.4535 52.5524 39.499C52.4614 39.863 52.2339 40.136 51.9154 40.2725ZM53.1439 40.5455C53.1894 40.773 53.0074 40.773 53.0074 40.955C52.7799 41.0005 52.8254 40.3635 53.1439 40.5455ZM51.6424 58.7455C51.7334 59.0185 51.2784 59.155 51.7789 59.155C51.6879 59.337 51.3694 59.337 51.1419 59.428C51.1419 58.973 51.3239 58.791 51.6424 58.7455ZM51.5514 52.6485C51.4604 52.148 52.4159 51.9205 52.5524 52.3755V52.603L52.4159 52.785C51.9609 52.876 51.9154 52.5575 51.5514 52.6485ZM52.4159 47.962C52.5979 47.507 52.6434 48.1895 52.5524 48.235C52.4614 48.235 52.3704 48.053 52.4159 47.962ZM52.5069 46.415C52.9164 46.3695 52.8254 46.779 53.1439 46.8245C53.1439 47.052 52.7344 46.9155 52.7799 47.234C52.4614 47.1885 52.5524 46.7335 52.5069 46.415ZM52.6434 57.335C52.5524 56.789 52.9164 56.7435 53.1439 56.5615C53.4169 56.7435 52.9164 57.244 52.6434 57.335ZM56.7839 33.766C56.1469 33.4475 56.2834 34.221 56.7839 33.766V33.766ZM58.1489 45.6415L57.9669 45.687L58.0124 45.869C57.6029 45.778 57.5119 46.051 57.1479 46.0055C56.9659 45.687 56.9204 45.2775 56.7839 44.959C57.1934 44.14 58.0579 44.9135 58.1489 45.6415ZM58.7404 23.392C58.4219 23.392 58.4674 22.8915 58.6039 22.755C58.9224 22.7095 58.6949 23.21 58.7404 23.392ZM58.5129 20.389C58.3309 20.298 58.1034 20.207 58.1489 19.8885C58.4219 19.7975 58.6494 19.479 58.8769 19.752C58.7859 19.9795 58.3764 19.8885 58.5129 20.389ZM58.6494 29.8985C58.4219 30.3535 58.3309 29.6255 58.3764 29.398C58.7404 29.2615 58.2854 29.9895 58.6494 29.8985ZM58.7404 32.6285C58.5584 32.583 58.6494 32.31 58.6039 32.128C58.8314 32.219 58.9224 32.4465 58.7404 32.6285ZM58.2399 21.7995C57.5574 21.754 58.0579 21.3445 58.1034 21.026C58.6949 21.026 58.0579 21.4355 58.2399 21.7995ZM58.1489 22.846C58.1034 22.937 58.0124 22.9825 58.0124 23.119C57.9214 23.0735 57.8759 22.9825 57.7849 22.9825C57.7849 22.8915 57.9214 22.846 57.9214 22.7095C57.9669 22.755 58.0124 22.846 58.1489 22.846ZM58.2399 37.952C58.0579 38.134 58.0124 38.498 57.5119 38.3615C57.7394 38.0885 57.3754 37.6335 57.5119 37.042C57.9669 37.133 58.1489 37.497 58.2399 37.952ZM57.0114 20.5255C57.0114 20.2525 57.4664 20.48 57.6484 20.389C57.6484 20.662 57.1934 20.4345 57.0114 20.5255ZM57.2389 23.5285C57.1479 23.483 57.1024 23.392 57.0114 23.392V23.119C57.2844 23.0735 57.2389 23.301 57.2389 23.5285ZM57.1479 39.6355C57.6029 39.863 56.8294 39.9085 56.9204 40.136C56.5564 40.045 57.1934 39.863 57.1479 39.6355ZM57.0114 47.1885L57.2389 47.234L57.3754 47.052C57.5574 47.1885 57.6939 47.416 57.8759 47.5525C57.6939 47.8255 57.0569 48.053 56.8749 47.962C56.9204 47.507 56.8749 47.2795 57.0114 47.1885ZM58.0124 52.0115L58.0579 52.1935L58.2399 52.148C58.4674 52.2845 58.8769 52.1935 58.9679 52.421C58.7859 52.4665 58.6949 52.6485 58.7404 52.8305L58.5584 52.785L58.5129 52.967C58.4674 53.2855 58.1944 53.2855 58.0124 53.1035L57.8304 53.058L57.6484 53.1035C57.7849 52.512 57.6029 52.33 58.0124 52.0115ZM57.8304 53.4675L58.0124 53.422C58.3309 53.422 58.6949 53.3765 59.0134 53.2855L58.9679 53.4675L59.1499 53.513C59.1044 53.7405 58.8769 53.8315 58.9224 54.15H58.6949L58.6494 54.332C58.1489 54.1955 57.6484 54.059 57.6484 53.422L57.8304 53.4675ZM58.3764 51.7385L58.3309 51.5565L58.1489 51.602C58.1944 51.3745 58.0124 51.329 58.0124 51.4655C57.5119 50.1915 58.7859 50.0095 59.2409 50.146L59.1954 50.3735L59.3774 50.51C59.2409 51.1015 58.8769 51.511 58.3764 51.7385ZM58.8769 44.322C58.7404 45.1865 58.9224 43.9125 58.8769 44.322V44.322ZM59.2409 33.402V33.129C59.5139 33.0835 59.4684 33.311 59.4684 33.5385C59.4229 33.493 59.3774 33.402 59.2409 33.402ZM59.2409 29.0795C59.5139 29.1705 59.2864 29.8075 59.3774 30.126C58.8769 29.9895 59.3774 29.6255 59.2409 29.0795ZM58.5129 25.9855C58.4674 25.576 58.8769 26.304 58.8769 25.849C59.3319 26.0765 58.6039 26.213 58.5129 25.9855ZM58.5129 16.6125C58.8769 15.8845 59.2864 16.385 58.5129 16.6125V16.6125ZM58.8769 18.842L58.8314 19.024L59.0134 19.0695V19.206C58.2854 19.0695 57.6484 19.6155 57.2844 19.0695C57.5119 18.8875 57.4664 18.387 57.9214 18.4325C57.9214 18.7965 58.4219 18.66 58.8769 18.842ZM57.6484 17.2495C57.7394 17.7045 57.1479 17.4315 57.2844 17.8865C57.0569 17.841 57.2844 17.295 56.7839 17.477C56.8749 17.2495 57.5119 16.749 57.6484 17.2495ZM57.2389 19.8885C57.3754 20.3435 56.8749 20.116 56.6019 20.1615C56.7839 19.934 57.0114 19.7975 57.2389 19.8885ZM56.6474 21.4355C56.3744 21.39 56.1924 21.1625 56.1469 20.935C56.3289 21.0715 56.6929 21.026 56.6474 21.4355ZM56.5109 14.5195C56.4654 15.202 56.1469 14.656 55.7829 14.656C56.0104 14.3375 56.1924 14.7925 56.5109 14.5195ZM55.6464 26.3495C55.8739 26.486 55.7829 26.8955 55.8739 27.123C55.5554 27.123 55.6464 26.7135 55.6464 26.3495ZM55.7829 37.8155C55.7374 37.9975 55.4189 37.861 55.4189 38.0885C55.0094 37.9065 55.6009 37.497 55.7829 37.8155ZM55.1459 18.4325C55.4189 18.4325 55.1914 18.9785 55.2824 19.206C55.1459 19.115 55.1459 18.8875 54.9184 18.933C54.9184 18.7055 55.2369 18.7965 55.1459 18.4325ZM54.9184 20.389C54.5089 20.844 55.3734 20.7985 54.9184 20.389V20.389ZM54.4179 18.842C54.5089 18.933 54.6454 18.9785 54.7819 18.9785C54.8274 19.297 54.4179 19.115 54.4179 19.388C54.0084 19.2515 54.5089 19.0695 54.4179 18.842ZM54.2814 19.8885C54.3724 20.1615 54.0539 20.0705 54.0539 20.298C53.7354 20.207 54.0084 19.752 54.2814 19.8885ZM53.9174 22.7095C54.0539 22.7095 54.0084 22.937 54.0539 23.119C53.7809 23.0735 53.5989 23.1645 53.5534 23.392C53.0529 23.0735 53.8264 22.937 53.9174 22.7095ZM52.4159 19.9795C52.7799 19.7975 52.7799 20.571 52.4159 20.389V19.9795ZM52.9164 20.8895C53.0074 21.299 52.5069 21.0715 52.5524 21.39C52.4159 21.3445 52.4614 21.117 52.3249 21.117C52.3704 20.9805 52.6889 20.9805 52.9164 20.8895ZM53.0074 23.392L52.9619 23.574L53.1439 23.6195C53.0529 23.8925 52.8254 23.9835 52.5069 24.029L52.5524 23.847L52.3704 23.8015C52.3704 23.7105 52.2794 23.665 52.2339 23.7105C52.1884 23.7105 52.1429 23.756 52.1429 23.8015C51.7789 23.574 52.7799 22.937 53.0074 23.392ZM50.9144 23.756C51.1419 23.5285 51.4604 23.4375 51.7789 23.483C51.6879 24.0745 51.4149 23.7105 50.9144 23.756ZM51.5514 19.206C51.4604 19.388 51.3694 19.6155 51.0509 19.6155C51.1419 19.4335 51.2329 19.206 51.5514 19.206ZM51.2784 21.7995C51.2784 22.118 51.0054 22.391 50.6414 22.4365C50.6869 22.118 50.9599 21.845 51.2784 21.7995ZM50.7779 15.293C50.8234 15.748 50.4139 15.7025 50.2774 15.93C49.9134 15.7025 50.3684 15.202 50.7779 15.293ZM50.1864 25.4395C49.3674 25.303 49.9134 25.849 50.1864 25.4395V25.4395ZM49.9134 24.666H49.5494V24.393H49.9134V24.666ZM49.5494 18.7055C49.3674 18.66 49.4584 18.387 49.4129 18.205H49.6404C49.5949 18.296 49.6859 18.3415 49.7769 18.3415C49.7314 18.478 49.5949 18.5235 49.5494 18.7055ZM49.6859 14.7925C50.0954 15.0655 49.1854 15.4295 49.0489 15.202C49.0944 14.8835 49.5949 15.0655 49.6859 14.7925ZM49.1854 16.476C49.4129 16.567 49.2764 16.7945 49.0489 16.749C49.0489 16.8855 49.0944 16.9765 49.1854 17.022C49.1854 17.295 48.7304 17.0675 48.5484 17.1585C48.5029 16.658 49.1399 16.8855 49.1854 16.476ZM48.4119 15.9755C48.3209 15.9755 48.2754 16.021 48.2754 16.112C48.1389 16.112 48.1844 15.8845 48.1389 15.7025C48.3664 15.657 48.4119 15.7935 48.4119 15.9755ZM48.4119 17.022C48.3209 17.204 48.3209 17.5225 47.9114 17.4315C48.0479 17.204 48.0934 16.9765 48.4119 17.022ZM47.8204 18.933C48.2299 18.7965 48.0024 19.3425 48.0479 19.57C47.8204 19.5245 47.5474 19.206 47.8204 18.933ZM47.8204 29.0795C47.3654 29.1705 47.2289 28.943 46.9559 28.8065C47.0469 28.6245 47.8204 28.761 47.8204 29.0795ZM47.1834 30.8085V31.0815H46.8194V30.8085H47.1834ZM47.1834 24.1655C47.5019 24.2565 47.2289 24.8025 46.9559 24.666C46.8194 24.302 47.1834 24.4385 47.1834 24.1655ZM47.4109 26.6225C47.5474 27.0775 46.9104 26.8045 46.6829 26.8955C46.8649 26.7135 47.1379 26.6225 47.4109 26.6225ZM46.4099 21.1625C46.2279 21.026 46.0914 20.753 46.1824 20.5255C46.5919 20.389 46.3644 20.935 46.4099 21.1625ZM46.5464 30.126C46.5919 30.399 46.0004 30.308 46.1824 29.9895C46.3644 29.9895 46.4099 30.126 46.5464 30.126ZM45.3179 23.8925C44.9994 23.483 45.4089 23.028 45.4544 22.573C46.0459 22.4365 45.7729 23.1645 46.1824 23.21C45.9094 23.483 45.6364 23.7105 45.3179 23.8925ZM45.4544 21.4355C45.7729 21.4355 45.7274 21.936 45.5909 22.0725C45.2724 22.118 45.4999 21.6175 45.4544 21.4355ZM45.6819 19.9795C45.8639 19.934 45.9094 20.116 46.0459 20.116C46.0914 20.389 45.4999 20.298 45.6819 19.9795ZM45.1814 18.296C45.4544 18.2505 45.4999 18.387 45.6819 18.4325C45.7274 18.66 44.9994 18.66 45.1814 18.296ZM45.6819 26.2585C45.3634 26.304 45.4089 26.031 45.0449 26.122C45.0449 25.8945 45.8639 25.849 45.6819 26.2585ZM45.9549 27.1685C45.7729 27.4415 45.4089 27.5325 45.1359 27.305C45.1359 27.305 45.0904 27.305 45.0904 27.2595C45.2269 26.941 45.6364 27.032 45.9549 27.1685ZM45.0449 33.5385C46.0004 33.6295 46.5919 32.7195 47.2744 33.2655L47.0924 33.311L47.1379 33.493C46.5464 33.8115 45.1814 34.767 44.7719 33.766L44.9539 33.7205L45.0449 33.5385ZM46.8194 55.1055C46.4554 54.969 46.8649 54.5595 46.8194 54.332C47.4564 54.423 46.5919 54.696 46.8194 55.1055ZM46.4099 53.5585C46.4099 53.331 46.2734 53.2855 46.2734 53.058C46.5464 53.058 46.6374 53.2855 47.0014 53.1945C46.9559 53.422 46.7284 53.513 46.4099 53.5585ZM46.3189 55.7425H45.9549L46.0004 55.515L45.8184 55.3785C45.7274 54.9235 46.0459 54.9235 46.3189 54.878C46.2734 55.3785 46.4554 55.3785 46.3189 55.7425ZM46.3189 56.9255C46.1369 56.88 46.1369 56.698 45.9549 56.6525C45.8639 56.2885 46.1824 56.3795 46.1824 56.152C46.4554 56.152 46.2279 56.698 46.3189 56.9255ZM46.1824 57.4715C46.0004 57.426 45.9094 57.244 45.9549 57.062C46.0914 57.1075 46.1824 57.2895 46.1824 57.4715ZM46.0459 54.059C45.6364 54.059 45.6364 53.6495 45.1814 53.6495C45.6364 53.3765 45.3634 53.24 45.6819 52.876C46.0004 53.149 46.1824 53.513 46.3189 53.9225C46.1824 53.9225 46.0914 53.968 46.0459 54.059ZM41.2229 53.9225C41.4959 53.877 41.3594 54.2865 41.5869 54.332C41.3594 54.7415 40.8134 54.15 41.2229 53.9225ZM41.5869 55.788C41.5414 55.879 41.4504 55.9245 41.4504 56.061H41.1774C41.1774 55.697 40.9499 55.788 41.1774 55.5605C41.3139 55.606 41.3139 55.788 41.5869 55.788ZM40.9499 50.055C40.9954 49.7365 41.4959 49.964 41.5869 50.055C41.4504 50.419 41.2684 49.873 40.9499 50.055ZM40.0854 44.322C40.4949 44.231 40.5859 44.504 40.9499 44.4585L40.9044 44.6405L41.0864 44.686C40.9499 45.1865 39.7669 45.0955 40.0854 44.322ZM40.4494 46.142V45.6415C40.9499 45.5505 40.8589 46.1875 40.4494 46.142ZM39.5849 35.495C39.8579 35.3585 39.5394 34.9035 39.4484 35.222L39.2664 35.1765L39.2209 35.3585C38.7204 35.222 39.1299 34.7215 39.0844 34.312H39.2209V34.1755C39.8124 34.3575 40.3584 34.7215 40.7224 35.222C40.7679 35.677 40.1309 36.132 39.7214 35.7225L39.7669 35.5405L39.5849 35.495ZM39.3574 41.0915V40.8185H39.5849V41.0915H39.3574ZM39.2209 45.3685C39.0389 46.87 39.7214 45.6415 39.2209 45.3685V45.3685ZM39.5849 39.9085C39.1754 39.499 39.2209 40.3635 39.5849 39.9085V39.9085ZM38.0834 47.5525C37.9924 47.416 37.9469 47.234 37.9469 47.052C38.2199 47.0065 38.4474 47.052 38.6749 47.1885C38.6749 47.5525 38.7204 47.9165 38.5384 48.0985C38.2654 48.144 38.4019 47.7345 38.1744 47.689L38.2199 47.507L38.0834 47.5525ZM37.7194 45.0955C37.9469 45.323 37.8559 45.0955 38.2199 45.0955C38.0834 45.323 38.2199 45.778 37.8559 45.7325C37.9469 45.3685 37.6739 45.414 37.7194 45.0955ZM35.8539 42.229C35.6264 42.138 35.7629 41.9105 35.9904 41.956C36.0359 41.865 35.9449 41.8195 35.8539 41.8195C35.8539 41.5465 36.3999 41.774 36.5819 41.683C36.6274 42.1835 35.8539 41.774 35.8539 42.229ZM36.5819 44.595C36.4909 44.8225 36.3089 45.0955 36.0814 44.868C36.2179 44.686 36.3999 44.5495 36.5819 44.595ZM35.4899 45.0955C35.3534 44.7315 35.4444 44.595 35.4899 44.049C35.7629 44.0035 35.8084 44.14 35.9904 44.1855C35.5809 44.504 36.1269 45.05 35.4899 45.0955ZM36.0814 29.489C35.8084 29.3525 35.8084 28.943 35.5809 28.7155C35.9449 28.3515 36.0814 27.76 36.4454 27.396C37.3099 28.0785 36.3999 28.943 36.0814 29.489ZM36.9914 28.852C37.0369 29.1705 36.9459 29.398 36.6274 29.3525C36.6274 29.125 36.6274 28.8065 36.9914 28.852ZM35.7174 37.1785C35.7629 36.9965 35.9449 36.951 35.9449 36.769C36.1724 36.8145 36.2179 36.9965 36.2179 37.2695C35.9449 37.3605 35.8994 37.224 35.7174 37.1785ZM36.2179 38.9985C35.8539 38.9985 35.3989 39.0895 35.4899 38.589C35.8539 38.862 36.2179 38.3615 36.2179 38.9985ZM35.8539 31.946C35.4899 31.764 35.9904 31.491 35.8539 31.1725H36.2179C36.3544 31.673 35.8994 31.6275 35.8539 31.946ZM35.3534 30.5355C35.2169 30.126 35.5354 30.217 35.5809 30.035C35.8539 30.035 35.6264 30.6265 35.3534 30.5355ZM35.7174 33.766C36.0814 34.039 35.3534 34.2665 35.3534 34.5395C34.8984 34.1755 35.6719 34.039 35.7174 33.766ZM36.3544 34.949C36.0814 34.9035 36.4909 34.585 36.4909 34.4485C36.8549 34.5395 36.3999 34.858 36.3544 34.949ZM36.3544 30.945C36.3544 30.8085 36.2179 30.854 36.1269 30.8085C36.3089 30.49 36.1724 29.8985 36.3544 29.6255C36.8549 29.5345 36.6729 30.1715 36.9914 30.2625C36.7639 30.49 36.7184 30.854 36.3544 30.945ZM36.9914 43.9125C37.1279 43.9125 37.2189 43.958 37.2189 44.049V44.322H37.4464C37.4919 44.777 37.3554 45.0045 37.0824 45.0955L37.0369 44.9135L36.8549 44.868C36.3999 44.5495 37.1279 44.3675 36.9914 43.9125ZM37.0824 40.2725C37.1734 39.9085 37.4919 40.3635 37.7194 40.2725C37.6284 40.7275 37.3554 40.3635 37.0824 40.2725ZM37.7194 42.0925C37.4919 42.0925 37.4464 41.9105 37.2189 41.956C37.1734 41.7285 37.9014 41.7285 37.7194 42.0925ZM37.3554 43.685C37.2644 43.321 37.5829 43.412 37.5829 43.1845C37.8104 43.23 37.8559 43.412 37.8104 43.685H37.3554ZM38.5839 28.7155C38.6294 29.125 38.4019 29.216 38.3564 29.489C37.9014 29.398 38.1744 28.67 38.5839 28.7155ZM38.2199 24.029C38.3564 24.0745 38.3109 24.302 38.4474 24.302C38.4019 24.666 38.0834 24.302 38.2199 24.029ZM38.8569 27.1685V27.669C38.4929 27.669 38.4019 27.032 38.7204 27.032V27.1685H38.8569ZM40.3129 25.849L40.4949 25.8035L40.4494 25.6215H41.6779C41.3594 26.122 40.8589 26.4405 40.3129 26.5315C40.0854 26.2585 40.4039 26.2585 40.3129 25.849ZM45.4544 40.2725C45.2724 41.1825 43.6344 40.5 43.0884 40.5455C43.4979 39.59 44.4989 40.136 45.4544 40.2725ZM43.5889 34.4485C44.0439 34.8125 44.1349 33.948 43.5889 34.4485V34.4485ZM45.9549 38.4525C45.2269 38.134 45.3179 38.9075 45.9549 38.4525V38.4525ZM45.8184 40.2725C45.5454 40.318 45.4089 40.1815 45.4544 39.863C45.7274 39.863 45.8184 39.9995 45.8184 40.2725ZM45.9549 35.586C44.4989 35.4495 45.0449 35.9955 45.9549 35.586V35.586ZM45.3179 37.1785C45.3179 37.406 44.4989 37.4515 44.6809 37.042C44.9084 37.2695 45.0449 36.86 45.3179 37.1785ZM45.3179 38.0885C44.9994 38.043 44.6809 37.9065 44.4534 37.679C44.6354 37.406 45.5454 37.497 45.3179 38.0885ZM45.1814 41.319C45.1359 41.501 44.9994 41.592 44.8174 41.592C44.8629 41.41 44.9994 41.319 45.1814 41.319ZM43.9529 47.052C43.6344 47.0975 43.6344 46.779 43.5889 46.5515C43.7254 46.4605 43.9074 46.415 44.0894 46.415C44.1349 46.7335 43.8619 46.688 43.9529 47.052ZM43.6799 43.2755C43.6344 43.0025 43.7709 42.9115 43.8164 42.775C44.2259 42.866 44.3169 43.321 44.5444 43.5485C44.0894 43.6395 44.0894 43.2755 43.6799 43.2755ZM44.1804 44.322C44.4534 44.3675 44.4079 44.686 44.6809 44.7315C44.4534 45.141 43.8619 44.5495 44.1804 44.322ZM43.4524 41.319C43.0429 41.4555 43.1339 41.3645 42.8154 41.1825C42.8609 40.8185 43.4979 40.9095 43.4524 41.319ZM42.5879 36.6325C42.8609 36.4505 43.1339 36.3595 43.4524 36.3595C43.4069 36.769 42.9064 36.6325 42.5879 36.6325ZM42.1784 46.6425C42.8154 46.324 43.1339 47.0975 42.1784 46.6425V46.6425ZM41.6779 44.049C41.8144 43.8215 41.9054 43.594 42.3149 43.6395C42.0874 43.776 42.1329 44.14 41.6779 44.049ZM42.1784 40.2725C41.9509 40.227 41.9509 39.9085 41.5414 39.9995L41.5869 39.863L41.5414 39.7265C41.4959 39.408 40.9954 39.3625 41.3139 39.0895C41.7689 38.9985 41.9054 39.226 42.1784 39.3625V40.2725ZM41.8144 36.769C41.4504 36.86 41.5414 36.496 41.3139 36.496C41.2684 36.3595 41.9509 36.4505 41.8144 36.769ZM41.5869 36.132C41.3139 36.1775 41.1774 36.041 41.2229 35.768C41.3139 35.859 41.6779 35.768 41.5869 36.132ZM41.3139 41.319C41.3594 41.5465 41.1774 41.5465 41.1774 41.7285H40.9499C40.9044 41.501 41.0864 41.501 41.0864 41.319H41.3139ZM40.5859 43.0025C40.4949 43.23 40.4494 42.9115 40.4494 42.7295C40.0854 42.593 40.7224 42.6385 40.5859 43.0025ZM40.0854 40.955C40.3129 40.7275 40.6314 40.6365 40.9499 40.682C41.0864 41.319 40.1764 41.319 40.0854 40.955ZM40.9499 36.9055C40.9499 37.1785 40.4949 36.951 40.3129 37.042C40.3129 36.769 40.7679 36.9965 40.9499 36.9055ZM40.9499 35.859C40.5404 35.4495 40.5859 36.3595 40.9499 35.859V35.859ZM40.3129 28.1695C40.1309 28.579 40.1764 27.7145 40.1764 27.5325C40.3584 27.123 40.3129 27.9875 40.3129 28.1695ZM40.2219 28.852C40.3129 28.488 40.3584 29.1705 40.3584 29.2615C40.2674 29.489 40.0854 29.3525 40.2219 28.852ZM40.0854 32.219C39.7669 32.219 40.0399 31.764 40.0854 31.7185C40.4039 31.7185 40.1309 32.128 40.0854 32.219ZM39.4484 24.666C39.4484 24.393 39.9034 24.6205 40.0854 24.5295C40.0854 24.848 39.6304 24.6205 39.4484 24.666ZM39.7214 26.122V26.2585H39.8579C40.4039 26.7135 39.4939 27.396 39.3574 27.942C39.0844 27.851 39.3574 27.123 39.1299 27.032L39.1754 26.85L38.9934 26.8955C38.7659 26.577 39.3574 26.2585 39.7214 26.122ZM39.4484 29.762C39.1299 29.1705 39.2209 28.4425 39.6759 27.942C39.7214 28.3515 40.3129 29.489 39.4484 29.762ZM39.3574 30.8085C39.4029 30.5355 39.6759 30.5355 39.7214 30.308C39.9034 30.308 39.6759 30.8995 39.3574 30.8085ZM39.2209 24.4385C38.4019 24.2565 38.9479 24.8025 39.2209 24.4385V24.4385ZM38.5839 30.399L38.7204 30.581L38.9479 30.5355C38.8569 30.945 39.1754 30.945 38.9479 31.1725C38.4929 31.127 38.4929 30.9905 38.0834 31.1725C38.3109 30.945 38.3564 30.581 38.5839 30.399ZM38.3564 35.586C38.1744 35.4495 38.0834 35.2675 38.1289 35.0855C38.3109 35.131 38.3564 35.313 38.3564 35.586ZM38.5839 35.586C38.8114 35.586 38.8569 35.768 39.0844 35.7225C39.1754 36.132 38.9479 36.1775 38.9479 36.496L38.7659 36.5415L38.8114 36.7235C38.4474 36.8145 38.3564 36.587 38.0834 36.587C38.1744 36.223 38.4929 35.9955 38.5839 35.586ZM38.3564 43.9125C38.3109 43.6395 38.9024 43.7305 38.7204 44.049H38.4929C38.4929 43.958 38.4019 43.958 38.3564 43.9125ZM38.8569 50.055C38.8114 50.237 38.6294 50.237 38.6294 50.4645C38.2654 50.3735 38.5839 49.9185 38.8569 50.055ZM38.5839 49.782C38.6749 49.691 38.7204 49.5545 38.7204 49.3725C38.9934 49.327 38.9479 49.5545 38.9934 49.782H38.5839ZM38.7204 49.145C38.8569 48.963 38.8569 48.6445 38.9934 48.508C39.2209 48.5535 39.1754 49.3725 38.7204 49.145ZM41.8144 46.0055C41.7689 46.2785 41.1774 46.051 40.9499 46.142C41.1774 45.7325 41.3139 46.051 41.8144 46.0055ZM41.3139 49.509C41.2684 49.2815 41.9964 49.2815 41.8144 49.6455C41.5869 49.418 41.5869 49.7365 41.3139 49.509ZM42.3149 51.329C41.9054 51.3745 41.9964 50.965 41.6779 50.9195C41.7234 50.783 42.4514 50.965 42.3149 51.329ZM42.1784 49.782C42.2694 49.5545 42.4059 49.782 42.5424 49.782C42.4969 50.0095 42.3604 49.782 42.1784 49.782ZM42.6789 53.0125C42.6334 53.1945 42.4969 53.2855 42.3149 53.2855C42.3604 53.1035 42.5424 53.0125 42.6789 53.0125ZM42.3149 57.1985L42.3604 57.3805L42.5424 57.335C42.7244 57.4715 42.8609 57.7445 42.7699 57.972L42.5424 57.9265L42.4059 58.1085H42.0419C42.3604 58.0175 42.0419 57.2895 42.3149 57.1985ZM42.5879 48.7355C42.2239 48.7355 42.1784 48.417 41.8599 48.326C41.8144 47.9165 42.1784 47.962 42.2239 47.689C42.5424 47.871 42.8609 48.0075 43.2249 48.0985C42.9064 48.1895 42.7699 48.5535 42.5879 48.7355ZM43.4524 48.4625C43.8619 48.4625 43.9074 48.8265 44.4534 48.7355C44.0894 49.054 43.5434 49.5545 42.9519 49.236C42.9064 48.781 43.5434 49.0085 43.4524 48.4625ZM44.4534 56.2885C44.3169 57.0165 44.9994 56.334 44.4534 56.2885V56.2885ZM44.4534 47.052C44.6809 46.688 44.7719 46.2785 44.6809 45.869C44.9539 45.778 45.0449 45.5505 45.4089 45.596C45.7274 45.9145 45.2269 45.8235 45.2724 46.233L45.0904 46.2785L45.2724 46.324C45.0904 46.6425 44.7719 47.325 44.4534 47.052ZM45.6819 48.3715C45.3634 48.4625 45.4089 48.0985 45.1814 48.0985C45.2724 47.78 45.8184 48.0075 45.6819 48.3715ZM45.8184 47.052L45.6364 47.0065L45.6819 47.1885C45.1814 47.143 45.1359 46.779 45.4544 46.5515L45.6364 46.597L45.5909 46.415C45.8184 46.415 45.7729 46.051 46.0914 46.142V46.415L46.3189 46.5515C46.1824 46.7335 46.0459 46.9155 45.8184 47.052ZM44.8174 18.023C44.4079 17.659 44.4534 18.5235 44.8174 18.023V18.023ZM44.6809 28.852C44.5899 28.943 44.5444 29.0795 44.6809 29.125C44.6354 29.3525 44.4534 29.4435 44.1804 29.398C44.2259 29.5345 44.4079 29.489 44.4079 29.671L44.2259 29.7165L44.2714 29.8985H43.6799C43.7709 29.4435 43.4979 29.398 43.5434 28.9885C43.8164 28.8065 44.3624 28.5335 44.6809 28.852ZM44.0894 24.8025C44.1349 24.6205 44.2714 24.5295 44.4534 24.5295C44.4079 24.7115 44.2259 24.848 44.0894 24.8025ZM44.0894 17.7955C44.0894 18.0685 43.5434 17.841 43.3614 17.932C43.3159 17.6135 43.8619 17.841 44.0894 17.7955ZM44.3169 19.206L44.2714 19.388L44.4534 19.4335C44.4534 19.934 43.8619 19.843 43.8164 20.3435C43.4069 20.389 43.4524 19.934 43.1794 19.843C43.3159 19.388 43.7254 19.1605 44.3169 19.206ZM43.5889 27.2595V27.669C43.4524 27.578 43.2704 27.5325 43.0884 27.5325C43.0884 27.305 43.2704 27.2595 43.5889 27.2595ZM43.4524 29.8985C43.4979 30.6265 44.8174 30.035 44.8174 30.8085C44.5899 31.036 44.6809 30.8085 44.3169 30.8085C44.4534 31.4 44.0439 31.4 43.9529 31.7185C44.1804 31.855 44.6809 32.401 44.8174 32.219C45.1814 32.583 44.7264 33.402 44.5899 33.2655L44.3624 33.22L44.3169 33.402C43.6344 33.5385 43.0429 33.402 42.8154 32.765L42.8609 32.583L42.6789 32.5375C42.6334 32.128 43.3159 32.492 43.1794 32.037C42.9064 31.855 42.6334 31.764 42.3149 31.764L42.2694 31.582L42.0874 31.6275C42.2694 30.854 42.7699 30.217 43.4524 29.8985ZM41.9509 28.852C41.9964 28.67 42.1329 28.579 42.3149 28.579C42.2694 28.761 42.1329 28.852 41.9509 28.852ZM42.4514 28.306V28.033H42.6789V28.306H42.4514ZM42.6789 22.3455C42.7244 22.118 42.8154 22.4365 42.8154 22.6185C42.7699 22.846 42.6789 22.5275 42.6789 22.3455ZM42.6789 23.6195C42.4059 24.029 43.0884 24.484 42.8154 24.939C42.6334 24.848 42.4969 24.757 42.3149 24.666L42.3604 24.4385L42.1784 24.302C42.2694 23.9835 42.3604 23.665 42.6789 23.6195ZM42.0874 27.2595C41.5869 28.215 42.6334 27.305 42.0874 27.2595V27.2595ZM41.7234 32.765L41.5414 32.7195L41.4959 32.9015C41.3139 32.856 41.3139 32.674 41.1319 32.6285C41.1319 32.31 41.3139 32.219 41.4959 32.128L41.5414 32.31L41.7234 32.2645C41.7234 32.31 41.9964 32.7195 41.7234 32.765ZM41.2229 22.7095C41.4959 22.755 41.4504 23.0735 41.7234 23.119C41.5414 23.483 41.0409 23.119 41.2229 22.7095ZM39.7214 21.026C40.2219 21.39 40.5859 21.8905 40.7224 22.4365L40.4949 22.391L40.4494 22.573C39.5394 22.3455 38.9479 21.7995 37.9469 21.663C37.9924 20.7075 39.5849 21.6175 39.7214 21.026ZM38.2199 31.855C38.1289 31.946 38.0379 32.219 38.2199 32.2645C38.0379 32.8105 37.7194 31.6275 38.2199 31.855ZM37.9469 36.2685V36.5415H37.3099C37.4919 36.4505 37.8104 35.9045 37.9469 36.2685ZM37.3554 22.6185C37.2644 22.937 36.9004 23.119 36.6274 23.028C36.8094 22.755 37.0369 22.6185 37.3554 22.6185ZM36.5819 25.849C36.9459 26.031 36.4909 26.3495 36.4454 26.486C36.1269 26.395 36.5819 26.031 36.5819 25.849ZM35.4899 25.576L35.6264 25.758L35.8539 25.7125C35.8994 26.304 35.7629 26.668 35.2169 26.6225C35.2169 26.2585 35.3079 25.8945 35.4899 25.576ZM35.0804 28.852C35.3079 28.943 35.0804 29.0795 35.0804 29.2615C34.8984 29.125 35.0804 28.9885 35.0804 28.852ZM34.9894 31.582H35.2169V31.855H34.9894V31.582ZM35.0804 37.952V38.225H34.8529V37.952H35.0804ZM34.3524 30.2625C34.3069 30.581 33.8064 30.3535 33.7154 30.2625C33.8519 29.8075 34.1704 30.126 34.3524 30.2625ZM32.8509 33.9025C32.8054 34.13 32.5779 34.221 32.6234 34.5395C32.1229 34.4485 32.2594 33.857 32.8509 33.9025ZM31.7589 35.9955C31.8954 36.0865 32.0319 36.8145 31.8954 36.769C31.3039 36.769 31.8499 36.314 31.7589 35.9955ZM31.8499 38.0885C31.8044 38.1795 31.7134 38.225 31.7134 38.3615H31.4859C31.4859 38.225 31.4404 38.134 31.3494 38.0885C31.3949 37.7245 31.5769 38.2705 31.8499 38.0885ZM30.6214 42.3655C30.5759 42.0925 30.8034 42.138 30.9854 42.0925C30.9399 42.2745 30.8034 42.411 30.6214 42.3655ZM30.6214 41.1825C30.7124 40.864 31.0309 40.8185 31.1219 40.5455C31.6224 40.682 31.0309 41.228 30.6214 41.1825ZM31.2584 42.6385C31.3039 42.32 31.5769 42.32 31.7589 42.502C31.7134 42.684 31.4404 42.593 31.2584 42.6385ZM31.9864 40.682H31.6224C31.5769 40.409 31.7134 40.318 31.7589 40.1815C31.9409 40.1815 32.0319 40.3635 31.9864 40.682ZM31.7589 37.5425C31.8044 37.224 32.0774 37.679 32.2594 37.679C32.1229 38.0885 31.8954 37.5425 31.7589 37.5425ZM32.2594 36.2685C31.8044 35.768 33.0784 37.224 32.2594 36.2685V36.2685ZM32.3504 39.135V38.7255C32.4869 38.8165 32.6689 38.862 32.8509 38.862C32.8509 39.0895 32.6689 39.135 32.3504 39.135ZM32.4869 37.406C32.6689 37.679 33.2149 37.6335 33.2149 38.043C32.7144 38.134 32.4414 37.952 32.4869 37.406ZM32.9874 37.042C33.1239 36.6325 33.8064 37.3605 33.3514 37.5425C32.8509 37.77 33.3059 36.9965 32.9874 37.042ZM33.6244 47.8255C33.5789 48.0985 33.3969 47.9165 33.4879 47.416C33.5789 47.052 33.6244 47.7345 33.6244 47.8255ZM34.2159 45.6415C33.8974 45.6415 33.8519 45.4595 33.5789 45.3685C33.7154 45.05 34.3979 45.232 34.2159 45.6415ZM34.4889 52.1025C34.1249 52.5575 34.9439 52.512 34.4889 52.1025V52.1025ZM34.2159 35.495C34.3069 35.222 34.8529 35.4495 34.7164 34.9945C34.8984 35.04 34.7619 35.404 34.9439 35.404C34.8074 35.677 34.5344 35.586 34.2159 35.495ZM34.8529 48.235C35.2169 47.7345 35.2624 48.599 34.8529 48.235V48.235ZM34.8529 46.6425C34.8074 46.5515 34.8984 46.506 34.9894 46.506V46.415H35.2169V46.142C35.2169 46.0055 35.2624 45.9145 35.3534 45.869C35.6719 45.869 35.8084 46.0965 35.9904 46.2785L35.8084 46.415L35.8539 46.6425H34.8529ZM35.2169 51.329C35.2624 51.056 35.5354 51.056 35.5809 50.8285C35.9449 50.965 35.6264 51.511 35.2169 51.329ZM36.0814 49.509V49.3725H35.9449C35.8994 49.236 35.8539 49.145 35.7174 49.0995C35.7174 48.963 35.8539 49.0085 35.9449 48.963V48.69H36.0814V48.5535C36.3089 48.599 36.3999 48.8265 36.7184 48.8265C36.7184 49.327 36.3544 49.3725 36.0814 49.509ZM37.3554 51.329L37.1734 51.2835L36.9914 51.329C36.2634 51.056 36.9914 50.3735 37.6284 50.419C37.6739 50.7375 37.5829 51.1015 37.3554 51.329ZM37.5829 49.236L37.6284 49.054L37.4464 49.0085V48.508H37.8104V48.235H37.9469V48.0985C38.2199 48.326 37.9924 49.0085 38.1744 49.2815L37.5829 49.236ZM38.7204 57.8355C38.2654 58.4725 39.4484 58.0175 38.7204 57.8355V57.8355ZM38.2199 57.4715C37.9014 57.2895 38.7204 56.8345 38.9479 57.1985C38.9934 57.5625 38.1744 57.1075 38.2199 57.4715ZM38.9479 50.8285C39.0389 50.692 39.2209 50.692 39.1754 50.419C39.4029 50.601 39.4939 50.9195 39.3119 51.147C39.3119 51.147 39.3119 51.1925 39.2664 51.1925C39.0389 51.238 39.1754 50.8285 38.9479 50.8285ZM39.3574 54.969C39.1299 54.878 39.4939 54.878 39.4939 54.696C39.6304 54.332 39.6304 55.1055 39.3574 54.969ZM39.4484 48.3715C39.3574 47.507 39.9034 47.2795 40.3129 46.961C40.4949 47.234 40.4494 47.78 40.8134 47.871L40.7679 48.053L40.9499 48.0985C40.9044 48.2805 40.7679 48.417 40.5859 48.508V48.3715H40.4494C40.2674 48.144 39.9489 48.4625 39.4484 48.3715ZM40.3129 56.789C39.9034 56.5615 40.5859 56.3795 40.5404 56.152C41.1774 56.3795 40.4039 56.516 40.3129 56.789ZM41.2229 59.155C40.9044 59.337 40.7224 58.791 40.5859 59.155C40.2219 58.791 40.9044 58.427 40.9499 58.1085C41.1774 58.245 41.1774 58.5635 41.3139 58.7455L41.1319 58.882L41.2229 59.155ZM42.5879 60.702V60.5655H42.4514C42.2239 60.4745 42.1784 60.2015 42.2694 59.974C42.2694 59.9285 42.3149 59.9285 42.3149 59.883C41.9054 60.2015 41.7234 59.428 41.4504 59.246L41.4959 59.064L41.4504 58.882C41.7689 58.973 41.3594 58.245 41.6779 58.3815C42.1784 58.336 42.3149 59.155 42.6789 58.518L42.8154 58.7L43.0429 58.6545C43.3159 59.337 43.1339 60.156 42.5879 60.702ZM43.3159 52.785C43.2249 53.5585 43.9074 52.876 43.3159 52.785V52.785ZM43.1794 52.6485C42.6334 52.4665 43.1794 52.239 43.1794 51.875C43.4524 51.8295 43.3159 52.239 43.5434 52.2845C43.6344 52.5575 42.9974 52.1935 43.1794 52.6485ZM44.0894 51.7385V52.239C43.9529 52.239 43.9984 52.057 43.9529 51.966C43.8619 51.9205 43.8164 52.0115 43.8164 52.1025C43.6344 52.0115 43.6344 51.693 43.5889 51.4655C43.8164 51.4655 43.7254 51.8295 44.0894 51.7385ZM43.6799 57.4715C43.5434 57.2895 43.6344 57.244 43.6799 57.062C44.0439 57.244 43.6344 58.609 43.6799 57.4715ZM44.0894 62.249L44.0439 62.067L43.8619 62.1125C43.7709 61.6575 44.0439 61.612 43.9984 61.2025C44.4534 61.2025 44.1804 61.976 44.7264 61.8395C44.4989 62.0215 44.3624 62.249 44.0894 62.249ZM44.8174 60.975C44.6354 60.8385 44.5444 60.6565 44.5899 60.4745C44.7719 60.4745 44.8629 60.6565 44.8174 60.975ZM44.9539 57.8355C44.6354 57.79 44.6809 58.063 44.3169 57.972C44.3169 57.608 44.2714 57.244 44.4534 57.062C44.6809 57.244 44.9994 57.335 44.9539 57.8355ZM45.1814 55.697L45.0449 55.7425C45.0449 55.3785 44.9994 54.878 45.1814 54.696C45.4089 54.878 45.6819 54.969 45.6819 55.333L45.6364 55.4695L45.6819 55.606C45.5909 55.697 45.4544 55.7425 45.3179 55.7425L45.1814 55.697ZM45.8184 59.9285L45.6819 59.7465L45.4544 59.792C45.4089 59.519 45.4544 59.246 45.5909 59.0185L45.7729 59.064L45.8184 58.882H45.9549L46.0004 59.064L46.0459 58.882C46.3189 58.8365 46.0914 59.337 46.1824 59.519L46.0004 59.5645L46.0459 59.7465C45.9549 59.8375 45.9549 59.9285 45.8184 59.9285ZM46.1824 60.702L46.3644 60.7475L46.4099 60.5655C46.5464 60.5655 46.6374 60.52 46.6374 60.429C46.8649 60.5655 46.7739 60.975 46.8649 61.2025C46.6374 60.975 46.6829 61.2025 46.3644 61.2025H46.2279V61.339C46.0459 61.3845 46.2279 60.884 46.1824 60.702ZM47.1834 63.068L47.0469 62.977L46.9104 63.068C46.5464 62.977 46.6829 62.977 46.2734 63.068V62.9315H46.1369C46.2279 62.2945 46.7284 62.1125 46.8649 61.521C47.2744 61.703 47.4109 62.613 47.1834 63.068ZM46.6829 51.7385L46.7284 51.5565L46.5464 51.602C46.5464 51.4655 46.4099 51.511 46.3189 51.4655C46.2734 51.147 46.5464 51.1925 46.4554 50.8285C46.8194 50.874 47.0014 51.147 47.3199 51.238C47.1834 51.511 47.0469 51.7385 46.6829 51.7385ZM46.8194 50.2825C47.0014 50.0095 47.8204 49.873 47.9569 50.2825L47.9114 50.4645L48.0934 50.51C48.0479 50.692 47.8659 50.692 47.8659 50.9195C47.2744 50.9195 47.3654 50.2825 46.8194 50.2825ZM47.8204 53.149C47.8204 53.1035 48.0934 52.9215 48.1844 53.0125C48.2754 53.1035 47.6839 53.3765 47.8204 53.149ZM48.1844 56.9255C47.5019 55.6515 49.4584 55.606 50.2774 55.1055C50.9144 55.515 49.6404 56.061 49.7769 56.789C49.2309 56.7435 48.6849 56.789 48.1844 56.9255ZM50.2774 62.0215C49.9134 62.067 49.7314 62.249 49.7769 62.6585C49.5039 62.5675 49.4584 62.2035 49.2764 62.0215L49.4584 61.976L49.4129 61.794C49.4584 61.6575 49.5039 61.5665 49.6404 61.521L49.8224 61.5665L49.8679 61.3845C50.0499 61.43 50.1864 61.612 50.2319 61.794L50.1864 61.9305L50.2774 62.0215ZM50.9144 63.068L50.7324 62.977L50.5504 63.068C50.6414 62.704 50.3684 62.7495 50.4139 62.431L50.5959 62.4765L50.5504 62.2945C50.9599 62.067 50.6414 61.794 50.6869 61.248C51.4149 61.157 51.5059 62.067 51.6879 62.158C51.3694 62.3855 51.1874 62.7495 50.9144 63.068ZM51.9154 60.975C51.9609 60.429 51.8244 60.0195 51.4149 59.9285C51.6879 59.5645 52.3249 59.9285 52.5524 60.065L52.5979 60.247L52.7799 60.2015C52.8254 60.3835 53.0984 60.2925 53.2804 60.338C53.2349 60.429 53.1439 60.4745 53.1439 60.611L52.9619 60.5655L53.0074 60.7475C52.4159 60.5655 52.5069 61.1115 51.9154 60.975ZM52.5524 64.4785C52.2339 64.3875 52.7799 64.1145 52.6889 63.8415C53.0529 63.978 52.5524 64.342 52.5524 64.4785ZM52.5524 63.2955C52.1884 63.068 52.5524 62.5675 52.9164 62.6585C53.0074 63.1135 52.4159 62.8405 52.5524 63.2955ZM54.1449 63.8415V64.251L53.9629 64.2055L54.0084 64.3875C53.6899 64.342 53.7354 64.615 53.3714 64.524L53.3259 64.2055L53.0074 64.251C53.0074 64.069 53.0074 63.887 53.1439 63.8415L53.1894 64.0235L53.2349 63.8415C53.4169 63.796 53.5534 63.614 53.5989 63.432V63.2955H53.4624C53.6444 63.159 53.5989 62.7495 53.9629 62.795L53.9174 62.977L54.0994 63.068C53.9629 63.4775 54.3724 63.2955 54.5999 63.341C54.5999 63.614 54.5544 63.9325 54.1449 63.8415ZM54.2814 61.339C54.5544 61.3845 54.5999 61.612 54.7819 61.7485C54.7364 61.976 54.2359 61.612 54.2814 61.339ZM54.7819 60.975C54.8274 60.5655 55.1459 60.4745 55.2824 60.2015L55.3279 60.3835L55.3734 60.2015C55.7374 60.3835 55.7374 60.9295 55.7374 61.521C55.1459 61.612 55.0549 61.2025 54.7819 60.975ZM56.0104 63.068C55.4189 63.0225 55.4644 62.34 55.0094 62.158C54.9184 61.8395 56.1014 62.158 55.6464 61.885C55.8739 61.612 56.1469 62.3855 56.1469 62.795L55.9649 62.8405L56.0104 63.068ZM56.1469 59.9285C56.3289 60.2925 57.0114 60.156 57.0114 60.702H56.8749V60.8385C56.8294 60.975 56.7839 61.066 56.6474 61.1115L56.4654 60.793L56.1469 60.8385V59.9285ZM56.6474 62.3855L56.6019 62.2035L56.4199 62.249C56.5109 61.794 56.2379 61.7485 56.2834 61.339L56.5109 61.3845L56.6474 61.2025C56.8749 61.339 57.0114 61.521 57.2844 61.612C57.1934 61.976 56.9659 62.249 56.6474 62.3855ZM57.5119 64.2055C57.6939 63.978 57.7849 63.705 58.1489 63.705C57.9669 63.9325 57.8759 64.2055 57.5119 64.2055ZM58.8769 59.519L58.8314 59.337L58.6494 59.3825V58.882C58.8769 58.882 58.7859 59.246 59.1499 59.155L59.3774 59.246L59.5139 59.0185C59.7869 59.1095 59.7869 59.2005 59.6504 59.428L59.4684 59.3825L59.5139 59.5645C59.3319 60.065 59.2409 59.519 58.8769 59.519ZM60.0144 62.9315L59.9689 62.7495L59.7869 62.795C59.8324 62.4765 59.7414 62.2945 59.5139 62.2945C59.6504 62.067 59.8779 61.976 60.1509 62.0215L60.1054 62.2035L60.2874 62.249C60.2874 62.522 60.1964 62.7495 60.0144 62.9315ZM60.0599 55.8335L60.1054 56.0155C60.0144 56.1975 60.2419 56.698 59.9689 56.6525L59.7869 56.3795L59.6049 56.6525H59.3774L59.4229 56.4705L59.2409 56.425C59.5594 56.1975 59.4229 56.061 59.4684 55.3785C59.7414 55.424 60.0144 55.5605 60.1964 55.788L60.0599 55.8335ZM61.0154 54.7415H60.6514C61.0154 54.241 60.1509 54.1955 60.5149 53.695C60.3329 53.786 60.1509 53.9225 60.0144 54.1045L59.8324 54.059L59.8779 54.241C59.5594 54.332 59.6504 53.968 59.3774 53.968C59.3319 53.604 59.6504 53.5585 59.6049 53.1945L59.7869 53.149L59.6049 53.1035C59.7869 52.876 59.4684 52.6485 59.8324 52.4665C59.7414 52.7395 60.1509 53.058 60.1964 52.7395L60.3784 52.785L60.4239 52.603C60.5604 52.694 60.7424 52.7395 60.9244 52.7395C61.0154 52.2845 60.6514 52.1025 60.4239 52.33H60.1964V52.603C59.6504 52.5575 59.9689 51.3745 60.5604 51.693L60.7424 51.6475L60.6969 51.4655H61.1974V51.1925L61.2429 51.0105L61.2884 50.8285C61.5159 51.1015 62.2894 50.783 62.5169 51.1015L62.4714 51.2835L62.5169 51.4655C62.4259 51.5565 62.4259 51.8295 62.2894 51.875C62.1074 51.5565 61.2884 52.0115 61.6524 52.2845L61.4704 52.33L61.5159 52.512C61.1974 53.1945 61.8799 52.9215 61.6524 52.512L61.8344 52.4665L61.7889 52.2845C62.1984 52.057 62.9264 51.5565 63.2904 52.0115L63.2449 52.239L63.4269 52.3755C63.5179 53.058 62.7444 52.876 62.5624 53.2855L62.3804 53.24L62.4259 53.422C62.3349 53.513 62.1984 53.5585 62.0619 53.5585C62.2894 53.877 61.9254 54.0135 62.1984 54.1955C61.9254 54.696 61.8799 53.877 61.4704 54.059C61.0154 54.15 61.5159 54.4685 61.2429 54.696L61.0609 54.6505L61.0154 54.7415Z" fill="#EF3360"/>
<path id="Vector_4" d="M35.672 45.687C36.3545 45.1865 37.037 44.686 37.7195 44.14L39.767 42.6385L41.8145 41.137L43.862 39.681C46.5465 37.6335 49.2765 35.7225 52.0065 33.8115L54.054 32.401C54.7365 31.9005 55.419 31.4455 56.1015 31.036L60.242 28.3515L62.335 27.123C63.0175 26.759 63.7455 26.3495 64.428 25.9855C65.793 25.212 67.249 24.575 68.705 24.029C70.1155 23.483 71.5715 23.119 73.073 23.0735C73.801 23.028 74.529 23.1645 75.2115 23.4375C75.9395 23.7105 76.531 24.2565 76.9405 24.939L77.3045 24.848C77.0315 23.938 76.44 23.119 75.6665 22.573C74.9385 22.0725 74.165 21.754 73.3005 21.6175C71.6625 21.3445 70.0245 21.4355 68.432 21.754C65.2015 22.5275 62.1075 23.665 59.15 25.212C56.147 26.7135 53.2805 28.4425 50.414 30.2625C47.593 32.128 44.772 34.039 41.9965 36.041C36.491 40.136 31.1675 44.4585 25.8895 48.963L21.9765 52.3755C20.657 53.513 19.383 54.696 18.0635 55.8335C15.47 58.154 11.739 61.794 9.14551 64.1145L9.37301 64.4785C15.288 60.975 22.022 55.788 27.5275 51.784C30.2575 49.782 32.8965 47.6435 35.672 45.687Z" fill="#6931AA"/>
<path id="Vector_5" d="M49.6406 48.5079C54.7366 45.2319 59.7416 41.7739 64.7011 38.3614C67.2036 36.6324 69.6606 34.9034 72.1631 33.2199C73.3916 32.3554 74.6656 31.5819 75.9396 30.8084C76.5766 30.4444 77.2136 30.1259 77.8506 29.8074C78.1691 29.6709 78.4876 29.5344 78.8061 29.4434L79.0336 29.3979H79.2611C79.3521 29.3979 79.4886 29.4434 79.5796 29.4434H79.9436C79.9436 29.2614 79.8526 29.1249 79.7161 28.9884C79.6251 28.8974 79.5341 28.8519 79.4431 28.8064C79.3521 28.7609 79.2611 28.7609 79.1701 28.7154L78.8971 28.6699C78.5331 28.6699 78.1236 28.6699 77.7596 28.7609C77.0316 28.8974 76.3036 29.0794 75.6211 29.3069C74.2106 29.8074 72.8456 30.3534 71.4806 30.9904C68.7506 32.2644 66.1116 33.6749 63.4726 35.1764C58.1946 38.1339 53.0531 41.3644 47.9116 44.6404C42.8156 47.9619 37.7651 51.4199 32.7146 54.8779C30.2121 56.6069 27.7096 58.3814 25.2071 60.1559L17.7451 65.6159L17.9271 65.9799C23.5691 63.7504 28.8926 60.8839 34.1706 57.9264C39.4031 54.9689 44.5446 51.7839 49.6406 48.5079Z" fill="#6931AA"/>
<path id="Vector_6" d="M81.2631 34.2209C79.2611 35.8134 77.1681 37.3149 75.1206 38.8164C73.0276 40.3179 70.9346 41.7284 68.8416 43.1389C64.6101 45.9599 60.3331 48.6444 55.9651 51.1924C53.7811 52.5119 51.6426 53.7859 49.4586 55.0599C47.2746 56.3339 45.0906 57.5625 42.9066 58.7455C38.4931 61.1569 34.0796 63.4775 29.6206 65.798L29.7571 66.2074C32.2141 65.7524 34.6711 65.2064 37.0371 64.433C39.4031 63.6595 41.7691 62.8404 44.0896 61.8849C46.4101 60.9294 48.6851 59.8829 50.9146 58.7455C52.0521 58.1539 53.1441 57.5624 54.2816 56.9709L57.6031 55.0599C62.0166 52.4209 66.2481 49.4179 70.2521 46.1419C72.2541 44.4584 74.2561 42.6839 76.1216 40.7729C78.0781 38.8619 79.8526 36.7689 81.4906 34.5394L81.2631 34.2209Z" fill="#6931AA"/>
</g>
</g>
</svg>
